<svg width="131" height="57" viewBox="0 0 313 137" fill="none" xmlns="http://www.w3.org/2000/svg">
<path d="M302.56 102.07C300.92 100.52 298.34 100.6 296.8 102.24L291.63 107.7V88.9401C291.63 85.2301 288.6 82.2201 284.89 82.2201C281.18 82.2201 278.17 85.2301 278.17 88.9401V117.09C278.17 120.81 281.18 123.82 284.89 123.82C287.27 123.82 289.36 122.58 290.55 120.7L302.72 107.84C304.27 106.2 304.2 103.63 302.56 102.07Z" fill="white"/>
<path d="M262.07 103.41C259.03 103.41 256.56 105.88 256.56 108.91V115.99C256.56 119.04 259.03 121.5 262.07 121.5C265.11 121.5 267.57 119.04 267.57 115.99V108.91C267.57 105.87 265.1 103.41 262.07 103.41Z" fill="white"/>
<path d="M230.49 82.0601H195.87C192.73 82.0601 190.17 84.62 190.17 87.7701C190.17 90.92 192.73 93.48 195.87 93.48H217.86L196.52 117.77C194.81 119.72 195.01 122.68 196.96 124.39C197.85 125.17 198.96 125.56 200.06 125.56C201.36 125.56 202.66 125.02 203.58 123.96L230.36 93.48H230.5C233.66 93.48 236.22 90.92 236.22 87.7701C236.22 84.62 233.66 82.0601 230.5 82.0601H230.49Z" fill="white"/>
<path d="M237.59 17.06C237.59 14.13 235.21 11.76 232.29 11.76H195.08C192.16 11.76 189.78 14.13 189.78 17.06C189.78 19.99 192.16 22.36 195.08 22.36H222.44L216.67 29.54C214.41 28.24 211.5 28.94 210.11 31.17L198.23 50.05C196.79 52.33 197.48 55.36 199.76 56.8C200.57 57.31 201.48 57.55 202.37 57.55C203.99 57.55 205.58 56.74 206.51 55.27L217.98 37.03C218.73 37.45 219.55 37.65 220.36 37.65C221.81 37.65 223.22 37.03 224.19 35.82L236.11 20.99C236.37 20.67 236.57 20.31 236.73 19.95C237.27 19.12 237.59 18.13 237.59 17.07V17.06Z" fill="white"/>
<path d="M297.49 13.1001C295.58 11.1801 292.48 11.1901 290.58 13.1001L256.72 46.9801C254.8 48.8801 254.8 51.9801 256.72 53.9001C257.67 54.8501 258.93 55.3301 260.17 55.3301C261.41 55.3301 262.68 54.8501 263.63 53.9001L281.42 36.1001C280.84 36.9501 280.5 37.9701 280.5 39.0801V53.8301C280.5 56.7601 282.88 59.1301 285.8 59.1301C288.72 59.1301 291.11 56.7601 291.11 53.8301V39.0801C291.11 36.1501 288.73 33.7801 285.8 33.7801C284.69 33.7801 283.67 34.1301 282.81 34.7101L297.48 20.0201C299.39 18.1001 299.39 15.0101 297.48 13.1001H297.49Z" fill="white"/>
<path d="M104.49 94.86C104.38 94.86 104.26 94.82 104.16 94.73C103.98 94.55 103.98 94.25 104.16 94.08L126.99 71.25C127.17 71.07 127.46 71.07 127.65 71.25C127.82 71.43 127.82 71.73 127.65 71.9L104.81 94.72C104.73 94.8 104.61 94.85 104.49 94.85V94.86Z" fill="white"/>
<path d="M31.78 94.86C31.66 94.86 31.5501 94.82 31.4501 94.73L8.63005 71.91C8.44005 71.73 8.44005 71.44 8.63005 71.26C8.81005 71.08 9.10005 71.08 9.29005 71.26L32.1101 94.09C32.2901 94.26 32.2901 94.56 32.1101 94.74C32.0301 94.82 31.9 94.87 31.78 94.87V94.86Z" fill="white"/>
<path d="M34.45 46.24C35.82 46.15 37.53 45.61 39.24 44.81L23.68 29.24C22.36 33.94 22.5 38.95 24.03 43.58C25.32 44.7 26.22 45.17 26.24 45.17C28.84 46.41 31.72 46.42 34.44 46.23L34.45 46.24Z" fill="white"/>
<path d="M65.6999 20.32L64.1099 18.73C58.1099 12.72 49.6799 10.56 41.9099 12.2L57.8499 28.16L65.6999 20.31V20.32Z" fill="white"/>
<path d="M38.2499 55.86C44.8499 56.87 48.5399 55.65 51.5499 54.17C53.5099 53.2 56.4399 50.81 58.4999 48.9L59.2399 48.25L95.2499 12.41C88.1399 10.63 80.3799 12.1 74.3699 16.82L73.3099 17.77C73.0199 18.04 72.6999 18.31 72.4599 18.59L51.1299 39.89C50.8499 40.19 50.52 40.52 50.2299 40.87L47.9799 43.12C44.4499 46.66 38.7199 49.53 34.6799 49.81C33.8499 49.87 33 49.9 32.14 49.9C30.35 49.9 28.52 49.73 26.7 49.17C27.56 50.49 28.5699 51.74 29.7199 52.9L30.6199 53.32C34.9999 55.34 38.2099 55.86 38.2399 55.87L38.2499 55.86Z" fill="white"/>
<path d="M47.6499 38.4301C47.8999 38.1301 48.2499 37.7601 48.5999 37.4001L52.4099 33.6001L34.1599 15.3201C32.6199 16.2701 31.17 17.4001 29.83 18.7201C28.85 19.7101 27.99 20.7701 27.2 21.8801L45.6799 40.3801L47.6499 38.4301Z" fill="white"/>
<path d="M50.39 67.98C57 68.99 60.6899 67.76 63.6799 66.28C66.1299 65.11 69.57 62.01 70.7 60.98C71.01 60.72 71.1599 60.57 71.2999 60.44L109.53 22.43C108.66 21.12 107.66 19.88 106.5 18.73C105.36 17.59 104.13 16.59 102.84 15.73L63.7399 54.57C62.2199 55.97 58.2899 59.44 54.9699 61.07C52.1299 62.47 48.3199 63.91 42.7399 63.91C42.0799 63.91 41.3899 63.87 40.6799 63.83L41.8199 64.96L42.8099 65.42C47.1799 67.44 50.39 67.96 50.42 67.97L50.39 67.98Z" fill="white"/>
<path d="M76.68 65.92C76.4 66.2 76.09 66.48 75.72 66.79C73.53 68.78 70.09 71.74 67.03 73.2C64.23 74.57 60.43 76.02 54.86 76.02C54.27 76.02 53.63 75.98 53.01 75.94C58.54 80.36 65.6 82 72.27 80.87C77.04 80.05 81.61 77.83 85.29 74.17C85.3 74.15 85.32 74.13 85.33 74.11L106.48 52.99C112.69 46.78 114.78 37.97 112.81 29.98L76.68 65.91V65.92Z" fill="white"/>
</svg>
