<svg width="1002" height="1027" viewBox="0 0 1002 1027" fill="none" xmlns="http://www.w3.org/2000/svg">
<path fill-rule="evenodd" clip-rule="evenodd" d="M1002 0H0V1027H1002V0ZM114.278 566.749C164.635 493.856 251.325 368.371 259 313.5C274.095 205.58 390.707 100.863 533.5 52.0001C676.293 3.13691 812.5 95.4999 843.676 172.424C849.864 187.69 867.723 204.278 889.104 224.137C940.178 271.574 1011.34 337.672 991.5 449C965.398 595.442 920.756 646.972 813.043 771.305C804.591 781.061 795.75 791.266 786.5 802C708.181 892.879 445.079 917.588 337.372 908.426C229.666 899.264 -103.963 870.11 93.5 597C99.2021 588.571 106.282 578.323 114.278 566.749Z" fill="#16223F"/>
</svg>
