<svg width="1002" height="1027" viewBox="0 0 1002 1027" fill="none" xmlns="http://www.w3.org/2000/svg">
<path fill-rule="evenodd" clip-rule="evenodd" d="M1002 0H0V1027H1002V0ZM248.117 419.164C277.027 386.837 304.935 355.63 322.277 329.92C329.83 318.723 337.238 304.418 345.558 288.352C376.786 228.049 420.857 142.948 533.611 104.364C676.404 55.5009 809.406 128.359 843.676 172.424C845.407 174.649 847.182 176.903 848.988 179.196C882.936 222.304 927.93 279.436 901.201 429.392C873.051 587.325 802.062 702.066 707.819 794.121C613.575 886.176 445.079 917.588 337.372 908.426C229.666 899.264 -33.8898 794.557 163.573 521.447C185.086 489.645 217.175 453.763 248.117 419.164Z" fill="#16223F"/>
</svg>
