<svg width="1025" height="1030" viewBox="0 0 1025 1030" fill="none" xmlns="http://www.w3.org/2000/svg">
<path fill-rule="evenodd" clip-rule="evenodd" d="M1025 0H0V1030H1025V0ZM146.898 371.679C152.765 338.008 158.427 305.515 179.073 278.73C188.094 267.027 196.943 252.074 206.88 235.282C244.181 172.251 296.821 83.2998 431.5 42.9702C602.059 -8.10353 879.659 68.0511 920.593 114.109C921.509 115.139 922.422 116.164 923.332 117.185C963.064 161.787 995.872 198.617 963 360C929.376 525.078 844.584 635.103 732.015 731.322C619.446 827.541 444.491 883.076 315.841 873.5C187.191 863.924 -127.612 764.387 108.247 478.921C134.022 445.579 140.579 407.946 146.898 371.679Z" fill="#16223F"/>
</svg>
