<svg width="1025" height="1030" viewBox="0 0 1025 1030" fill="none" xmlns="http://www.w3.org/2000/svg">
<path fill-rule="evenodd" clip-rule="evenodd" d="M1025 0H0V1030H1025V0ZM209.23 372.012C243.762 338.222 277.096 305.603 297.81 278.73C306.832 267.027 315.68 252.074 325.618 235.282C362.918 172.251 415.558 83.2998 550.237 42.9702C720.796 -8.10357 879.659 68.0511 920.593 114.109C922.661 116.435 924.78 118.79 926.938 121.187C967.487 166.245 1021.23 225.962 989.304 382.702C955.679 547.78 870.888 667.712 758.319 763.931C645.75 860.15 444.491 892.984 315.841 883.407C187.191 873.831 -127.612 764.387 108.247 478.921C133.943 445.681 172.272 408.175 209.23 372.012Z" fill="#16223F"/>
</svg>
