<svg width="610" height="479" viewBox="0 0 610 479" fill="none" xmlns="http://www.w3.org/2000/svg">
<path d="M544.723 0H81.4525C74.5877 0 69 5.58508 69 12.4525V332.844H557.173V12.4525C557.173 5.58765 551.588 0 544.72 0H544.723ZM540.4 314.992H85.7681V18.2307H540.4V314.992Z" fill="#999999"/>
<path d="M545.21 2.51318H81.9393C76.4495 2.51318 72 6.96271 72 12.4525V330.331H555.147V12.4525C555.147 6.96271 550.697 2.51318 545.207 2.51318H545.21ZM540.886 314.992H86.255V18.2307H540.886V314.992Z" fill="black"/>
<path d="M609.113 330.503H17V340.842H609.113V330.503Z" fill="url(#paint0_linear_215_800)"/>
<path d="M312.878 340.916H17C17 340.916 26.9754 348 65.937 348H560.349C599.393 348 609.392 340.916 609.392 340.916H312.878Z" fill="url(#paint1_linear_215_800)"/>
<path opacity="0.6" d="M360.569 336.964H265.056C262.543 336.786 260.506 335.815 260.506 334.618L259 330.328H366.628L365.122 334.618C365.122 335.815 363.085 336.786 360.572 336.964H360.569Z" fill="url(#paint2_linear_215_800)"/>
<path opacity="0.6" d="M360.569 336.964H265.056C262.543 336.786 260.506 335.815 260.506 334.618L259 330.328H366.628L365.122 334.618C365.122 335.815 363.085 336.786 360.572 336.964H360.569Z" fill="url(#paint3_linear_215_800)"/>
<rect x="84" y="17" width="459" height="303.96" fill="url(#paint4_linear_215_800)"/>
<rect x="84" y="17" width="123.344" height="306" fill="#16223F"/>
<path d="M108.546 34.1785C108.546 35.4747 108.191 36.4666 107.482 37.1541C106.777 37.838 105.763 38.1799 104.442 38.1799H102.256V30.3274H104.673C105.894 30.3274 106.845 30.664 107.525 31.3372C108.205 32.0068 108.546 32.9539 108.546 34.1785ZM107.504 34.2107C107.504 33.2117 107.257 32.4561 106.762 31.9441C106.272 31.4285 105.529 31.1707 104.533 31.1707H103.244V37.3313H104.313C106.44 37.3313 107.504 36.2911 107.504 34.2107ZM113.799 38.1799L113.611 37.342H113.568C113.274 37.7109 112.98 37.9615 112.687 38.094C112.397 38.2229 112.03 38.2874 111.586 38.2874C111.006 38.2874 110.551 38.1352 110.221 37.8308C109.892 37.5264 109.727 37.0968 109.727 36.5417C109.727 35.3458 110.671 34.7192 112.558 34.6619L113.557 34.6243V34.2751C113.557 33.8276 113.46 33.4981 113.267 33.2869C113.073 33.072 112.764 32.9646 112.338 32.9646C112.026 32.9646 111.731 33.0111 111.451 33.1042C111.176 33.1973 110.916 33.3012 110.673 33.4158L110.377 32.6907C110.674 32.5331 110.998 32.4096 111.349 32.3201C111.7 32.2306 112.048 32.1858 112.391 32.1858C113.104 32.1858 113.634 32.3433 113.981 32.6584C114.329 32.9736 114.502 33.4749 114.502 34.1624V38.1799H113.799ZM111.806 37.5085C112.347 37.5085 112.771 37.3635 113.079 37.0735C113.39 36.7799 113.546 36.3645 113.546 35.8274V35.2957L112.676 35.3333C111.999 35.3583 111.505 35.4657 111.194 35.6555C110.886 35.8453 110.732 36.1443 110.732 36.5525C110.732 36.8604 110.825 37.0968 111.011 37.2615C111.201 37.4262 111.466 37.5085 111.806 37.5085ZM120.174 36.5525C120.174 37.1039 119.968 37.5318 119.556 37.8362C119.145 38.137 118.566 38.2874 117.822 38.2874C117.044 38.2874 116.427 38.1638 115.968 37.9167V37.0359C116.617 37.351 117.241 37.5085 117.843 37.5085C118.33 37.5085 118.684 37.4298 118.906 37.2722C119.128 37.1147 119.239 36.9034 119.239 36.6384C119.239 36.4057 119.132 36.2087 118.917 36.0476C118.706 35.8865 118.328 35.7021 117.784 35.4944C117.229 35.2795 116.839 35.0969 116.613 34.9465C116.387 34.7926 116.221 34.6207 116.113 34.4309C116.01 34.2411 115.958 34.0102 115.958 33.738C115.958 33.2546 116.155 32.8733 116.549 32.594C116.942 32.3147 117.483 32.175 118.171 32.175C118.84 32.175 119.467 32.3075 120.051 32.5725L119.723 33.3406C119.125 33.0899 118.586 32.9646 118.106 32.9646C117.705 32.9646 117.401 33.0291 117.193 33.158C116.985 33.2833 116.882 33.4569 116.882 33.679C116.882 33.8938 116.971 34.0728 117.15 34.2161C117.329 34.3557 117.746 34.5509 118.402 34.8015C118.892 34.9841 119.254 35.1542 119.487 35.3118C119.723 35.4693 119.897 35.6466 120.008 35.8435C120.119 36.0404 120.174 36.2768 120.174 36.5525ZM125.626 38.1799V34.4094C125.626 33.9296 125.518 33.5733 125.303 33.3406C125.092 33.1042 124.759 32.9861 124.304 32.9861C123.706 32.9861 123.268 33.1526 122.988 33.4856C122.713 33.8186 122.575 34.3682 122.575 35.1345V38.1799H121.608V29.8225H122.575V32.2717C122.575 32.594 122.557 32.8697 122.521 33.0989H122.586C122.761 32.8124 123.01 32.5886 123.332 32.4275C123.655 32.2664 124.018 32.1858 124.423 32.1858C125.139 32.1858 125.678 32.3577 126.039 32.7014C126.401 33.0416 126.582 33.5876 126.582 34.3396V38.1799H125.626ZM131.201 32.1858C131.978 32.1858 132.578 32.4543 133 32.9915C133.423 33.525 133.634 34.2716 133.634 35.2312C133.634 36.2052 133.419 36.9589 132.989 37.4924C132.56 38.0224 131.964 38.2874 131.201 38.2874C130.803 38.2874 130.449 38.2157 130.137 38.0725C129.826 37.9293 129.572 37.7162 129.375 37.4333H129.3C129.189 37.863 129.122 38.1119 129.101 38.1799H128.408V29.8225H129.375V31.8528C129.375 32.2574 129.357 32.662 129.321 33.0667H129.375C129.772 32.4794 130.381 32.1858 131.201 32.1858ZM131.04 32.9861C130.445 32.9861 130.019 33.1544 129.761 33.491C129.504 33.8276 129.375 34.3969 129.375 35.199V35.2419C129.375 36.0476 129.505 36.6241 129.767 36.9714C130.032 37.3152 130.463 37.4871 131.061 37.4871C131.591 37.4871 131.985 37.2937 132.243 36.907C132.504 36.5167 132.635 35.9545 132.635 35.2205C132.635 34.4757 132.504 33.9171 132.243 33.5447C131.981 33.1723 131.58 32.9861 131.04 32.9861ZM140.3 35.2205C140.3 36.1837 140.056 36.9356 139.569 37.4763C139.082 38.017 138.409 38.2874 137.55 38.2874C137.016 38.2874 136.543 38.1638 136.132 37.9167C135.72 37.6661 135.403 37.308 135.181 36.8425C134.959 36.377 134.848 35.8363 134.848 35.2205C134.848 34.2608 135.088 33.5142 135.568 32.9807C136.047 32.4436 136.721 32.175 137.587 32.175C138.418 32.175 139.077 32.449 139.564 32.9968C140.054 33.5411 140.3 34.2823 140.3 35.2205ZM135.847 35.2205C135.847 35.9617 135.992 36.5256 136.282 36.9124C136.576 37.2955 137.007 37.4871 137.576 37.4871C138.139 37.4871 138.566 37.2955 138.86 36.9124C139.154 36.5256 139.301 35.9617 139.301 35.2205C139.301 34.4792 139.152 33.9224 138.855 33.55C138.561 33.1741 138.13 32.9861 137.56 32.9861C136.418 32.9861 135.847 33.7309 135.847 35.2205ZM145.477 38.1799L145.289 37.342H145.246C144.953 37.7109 144.659 37.9615 144.365 38.094C144.075 38.2229 143.708 38.2874 143.264 38.2874C142.684 38.2874 142.23 38.1352 141.9 37.8308C141.571 37.5264 141.406 37.0968 141.406 36.5417C141.406 35.3458 142.349 34.7192 144.237 34.6619L145.236 34.6243V34.2751C145.236 33.8276 145.139 33.4981 144.946 33.2869C144.752 33.072 144.442 32.9646 144.016 32.9646C143.705 32.9646 143.409 33.0111 143.13 33.1042C142.854 33.1973 142.595 33.3012 142.351 33.4158L142.056 32.6907C142.353 32.5331 142.677 32.4096 143.028 32.3201C143.379 32.2306 143.726 32.1858 144.07 32.1858C144.783 32.1858 145.313 32.3433 145.66 32.6584C146.007 32.9736 146.181 33.4749 146.181 34.1624V38.1799H145.477ZM143.485 37.5085C144.025 37.5085 144.45 37.3635 144.758 37.0735C145.069 36.7799 145.225 36.3645 145.225 35.8274V35.2957L144.355 35.3333C143.678 35.3583 143.184 35.4657 142.872 35.6555C142.564 35.8453 142.41 36.1443 142.41 36.5525C142.41 36.8604 142.503 37.0968 142.69 37.2615C142.879 37.4262 143.144 37.5085 143.485 37.5085ZM150.762 32.175C151.024 32.175 151.255 32.1965 151.455 32.2395L151.337 33.1311C151.119 33.081 150.906 33.0559 150.698 33.0559C150.386 33.0559 150.096 33.1418 149.828 33.3137C149.563 33.4856 149.355 33.7237 149.205 34.0281C149.054 34.3289 148.979 34.6637 148.979 35.0325V38.1799H148.012V32.2825H148.807L148.915 33.3621H148.958C149.183 32.9718 149.45 32.6764 149.758 32.4758C150.066 32.2753 150.401 32.175 150.762 32.175ZM154.538 38.2874C153.772 38.2874 153.178 38.0224 152.755 37.4924C152.333 36.9625 152.121 36.2123 152.121 35.2419C152.121 34.2787 152.333 33.5268 152.755 32.9861C153.181 32.4454 153.779 32.175 154.549 32.175C155.34 32.175 155.949 32.4651 156.375 33.0452H156.445C156.434 32.9736 156.42 32.8303 156.402 32.6155C156.384 32.3971 156.375 32.2502 156.375 32.175V29.8225H157.342V38.1799H156.563L156.418 37.3904H156.375C155.963 37.9884 155.351 38.2874 154.538 38.2874ZM154.694 37.4871C155.281 37.4871 155.709 37.3277 155.978 37.009C156.25 36.6868 156.386 36.1604 156.386 35.4299V35.2527C156.386 34.4327 156.248 33.849 155.972 33.5017C155.7 33.1508 155.271 32.9753 154.683 32.9753C154.186 32.9753 153.801 33.1741 153.529 33.5715C153.256 33.9654 153.12 34.5294 153.12 35.2634C153.12 35.9939 153.255 36.5471 153.523 36.9231C153.795 37.2991 154.186 37.4871 154.694 37.4871Z" fill="white"/>
<path d="M105.652 123.92H102.062V117.495H105.652V118.207H102.87V120.211H105.489V120.914H102.87V123.208H105.652V123.92ZM108.025 123.92L106.197 119.095H107.045L108.069 121.938C108.271 122.509 108.4 122.936 108.456 123.217H108.491C108.5 123.179 108.51 123.136 108.522 123.089C108.536 123.04 108.552 122.987 108.57 122.931C108.588 122.873 108.696 122.542 108.895 121.938L109.924 119.095H110.767L108.935 123.92H108.025ZM113.584 124.008C112.861 124.008 112.292 123.79 111.879 123.353C111.469 122.914 111.264 122.31 111.264 121.542C111.264 120.769 111.456 120.154 111.84 119.697C112.223 119.237 112.742 119.007 113.395 119.007C114.002 119.007 114.485 119.203 114.845 119.596C115.206 119.985 115.386 120.514 115.386 121.182V121.661H112.081C112.096 122.209 112.235 122.625 112.499 122.909C112.762 123.193 113.136 123.335 113.619 123.335C113.877 123.335 114.122 123.313 114.353 123.27C114.585 123.223 114.856 123.133 115.166 123.001V123.696C114.9 123.81 114.649 123.891 114.415 123.938C114.18 123.984 113.904 124.008 113.584 124.008ZM113.386 119.653C113.009 119.653 112.71 119.774 112.49 120.018C112.27 120.261 112.14 120.599 112.099 121.033H114.555C114.55 120.582 114.446 120.239 114.243 120.004C114.041 119.77 113.756 119.653 113.386 119.653ZM119.899 123.92V120.835C119.899 120.442 119.811 120.151 119.635 119.96C119.463 119.767 119.19 119.67 118.818 119.67C118.323 119.67 117.963 119.808 117.737 120.083C117.514 120.356 117.403 120.801 117.403 121.419V123.92H116.612V119.095H117.249L117.368 119.754H117.412C117.561 119.517 117.771 119.333 118.04 119.205C118.31 119.073 118.607 119.007 118.932 119.007C119.524 119.007 119.964 119.15 120.251 119.438C120.538 119.725 120.681 120.171 120.681 120.778V123.92H119.899ZM123.788 123.362C123.891 123.362 124.011 123.352 124.149 123.331C124.286 123.311 124.39 123.287 124.461 123.261V123.867C124.387 123.899 124.273 123.93 124.118 123.959C123.966 123.992 123.81 124.008 123.652 124.008C122.709 124.008 122.237 123.511 122.237 122.518V119.71H121.556V119.332L122.246 119.016L122.562 117.987H123.032V119.095H124.426V119.71H123.032V122.496C123.032 122.774 123.098 122.988 123.23 123.138C123.365 123.287 123.551 123.362 123.788 123.362ZM128.57 122.588C128.57 123.04 128.401 123.39 128.064 123.639C127.727 123.885 127.254 124.008 126.645 124.008C126.009 124.008 125.504 123.907 125.129 123.705V122.984C125.659 123.242 126.17 123.371 126.662 123.371C127.061 123.371 127.351 123.306 127.532 123.177C127.714 123.048 127.805 122.875 127.805 122.659C127.805 122.468 127.717 122.307 127.541 122.175C127.368 122.043 127.059 121.893 126.614 121.723C126.16 121.547 125.841 121.397 125.656 121.274C125.471 121.148 125.335 121.008 125.247 120.853C125.162 120.697 125.12 120.508 125.12 120.286C125.12 119.89 125.281 119.578 125.603 119.35C125.926 119.121 126.368 119.007 126.93 119.007C127.478 119.007 127.991 119.115 128.468 119.332L128.2 119.96C127.711 119.755 127.27 119.653 126.878 119.653C126.55 119.653 126.301 119.706 126.131 119.811C125.961 119.914 125.876 120.056 125.876 120.237C125.876 120.413 125.949 120.56 126.095 120.677C126.242 120.791 126.583 120.951 127.119 121.156C127.521 121.305 127.817 121.444 128.007 121.573C128.2 121.702 128.342 121.847 128.433 122.008C128.524 122.169 128.57 122.363 128.57 122.588Z" fill="white"/>
<path d="M105.705 144.642C105.705 145.201 105.503 145.642 105.098 145.965C104.694 146.287 104.132 146.448 103.411 146.448C102.649 146.448 102.06 146.347 101.644 146.145V145.371C101.917 145.489 102.214 145.581 102.536 145.648C102.862 145.716 103.165 145.749 103.446 145.749C103.926 145.749 104.288 145.657 104.531 145.472C104.775 145.288 104.896 145.034 104.896 144.712C104.896 144.498 104.852 144.323 104.764 144.185C104.676 144.047 104.529 143.918 104.321 143.798C104.115 143.678 103.803 143.542 103.384 143.389C102.79 143.173 102.365 142.918 102.11 142.625C101.855 142.329 101.728 141.948 101.728 141.482C101.728 140.981 101.915 140.583 102.29 140.287C102.668 139.991 103.165 139.843 103.78 139.843C104.422 139.843 105.012 139.963 105.551 140.203L105.301 140.898C104.75 140.669 104.237 140.555 103.762 140.555C103.382 140.555 103.083 140.637 102.866 140.801C102.652 140.965 102.545 141.195 102.545 141.491C102.545 141.702 102.586 141.878 102.668 142.018C102.753 142.156 102.888 142.282 103.072 142.396C103.26 142.51 103.553 142.641 103.951 142.787C104.429 142.963 104.785 143.135 105.019 143.302C105.254 143.466 105.426 143.656 105.538 143.873C105.649 144.087 105.705 144.343 105.705 144.642ZM108.944 146.448C108.22 146.448 107.652 146.23 107.238 145.793C106.828 145.354 106.623 144.75 106.623 143.983C106.623 143.209 106.815 142.594 107.199 142.137C107.583 141.677 108.101 141.447 108.755 141.447C109.361 141.447 109.844 141.643 110.205 142.036C110.565 142.426 110.745 142.954 110.745 143.622V144.101H107.441C107.455 144.649 107.594 145.065 107.858 145.349C108.122 145.634 108.495 145.776 108.979 145.776C109.237 145.776 109.481 145.754 109.713 145.71C109.944 145.663 110.215 145.573 110.526 145.442V146.136C110.259 146.25 110.009 146.331 109.774 146.378C109.54 146.425 109.263 146.448 108.944 146.448ZM108.746 142.093C108.368 142.093 108.069 142.215 107.849 142.458C107.63 142.701 107.499 143.039 107.458 143.473H109.915C109.909 143.022 109.805 142.679 109.603 142.445C109.401 142.21 109.115 142.093 108.746 142.093ZM113.584 145.802C113.687 145.802 113.807 145.792 113.945 145.771C114.082 145.751 114.186 145.727 114.257 145.701V146.307C114.183 146.34 114.069 146.37 113.914 146.4C113.761 146.432 113.606 146.448 113.448 146.448C112.505 146.448 112.033 145.951 112.033 144.958V142.15H111.352V141.772L112.042 141.456L112.358 140.427H112.828V141.535H114.221V142.15H112.828V144.936C112.828 145.215 112.894 145.428 113.026 145.578C113.161 145.727 113.347 145.802 113.584 145.802ZM116.836 145.802C116.939 145.802 117.059 145.792 117.197 145.771C117.334 145.751 117.438 145.727 117.509 145.701V146.307C117.435 146.34 117.321 146.37 117.166 146.4C117.013 146.432 116.858 146.448 116.7 146.448C115.757 146.448 115.285 145.951 115.285 144.958V142.15H114.604V141.772L115.294 141.456L115.61 140.427H116.08V141.535H117.473V142.15H116.08V144.936C116.08 145.215 116.146 145.428 116.278 145.578C116.413 145.727 116.599 145.802 116.836 145.802ZM119.266 146.36H118.475V141.535H119.266V146.36ZM118.414 140.23C118.414 140.054 118.458 139.927 118.546 139.847C118.636 139.768 118.748 139.729 118.88 139.729C119.003 139.729 119.11 139.768 119.2 139.847C119.294 139.927 119.341 140.054 119.341 140.23C119.341 140.403 119.294 140.53 119.2 140.612C119.11 140.694 119.003 140.735 118.88 140.735C118.748 140.735 118.636 140.694 118.546 140.612C118.458 140.53 118.414 140.403 118.414 140.23ZM124.083 146.36V143.275C124.083 142.883 123.995 142.591 123.819 142.401C123.646 142.207 123.374 142.111 123.002 142.111C122.507 142.111 122.146 142.248 121.921 142.524C121.698 142.796 121.587 143.241 121.587 143.86V146.36H120.796V141.535H121.433L121.551 142.194H121.595C121.745 141.957 121.954 141.774 122.224 141.645C122.493 141.513 122.791 141.447 123.116 141.447C123.708 141.447 124.147 141.591 124.434 141.878C124.721 142.165 124.865 142.612 124.865 143.218V146.36H124.083ZM128.196 145.802C128.682 145.802 129.035 145.672 129.255 145.411C129.478 145.147 129.589 144.725 129.589 144.145V143.956C129.589 143.312 129.478 142.843 129.255 142.55C129.032 142.257 128.674 142.111 128.178 142.111C127.774 142.111 127.461 142.272 127.238 142.594C127.018 142.913 126.908 143.37 126.908 143.965C126.908 144.563 127.015 145.018 127.229 145.332C127.446 145.645 127.768 145.802 128.196 145.802ZM129.58 146.316L129.607 145.723H129.572C129.246 146.206 128.748 146.448 128.077 146.448C127.453 146.448 126.966 146.231 126.614 145.798C126.265 145.361 126.091 144.747 126.091 143.956C126.091 143.18 126.267 142.568 126.618 142.119C126.973 141.671 127.456 141.447 128.069 141.447C128.722 141.447 129.226 141.69 129.58 142.177H129.629L129.734 141.535H130.363V146.439C130.363 147.131 130.187 147.651 129.835 147.999C129.487 148.348 128.943 148.522 128.205 148.522C127.502 148.522 126.923 148.42 126.469 148.215V147.485C126.938 147.737 127.531 147.863 128.249 147.863C128.659 147.863 128.983 147.743 129.22 147.503C129.46 147.262 129.58 146.93 129.58 146.505V146.316Z" fill="white"/>
<path d="M106.948 72.6152V76.7725C106.948 77.5049 106.727 78.0806 106.285 78.4995C105.842 78.9185 105.229 79.1279 104.444 79.1279C103.667 79.1279 103.065 78.917 102.637 78.4951C102.21 78.0703 101.996 77.4902 101.996 76.7549V72.6152H102.809V76.7812C102.809 77.3057 102.948 77.7114 103.226 77.9985C103.508 78.2856 103.929 78.4292 104.492 78.4292C105.022 78.4292 105.429 78.2871 105.714 78.0029C106.001 77.7188 106.144 77.3086 106.144 76.7725V72.6152H106.948ZM111.677 77.7085C111.677 78.1597 111.509 78.5098 111.172 78.7588C110.835 79.0049 110.362 79.1279 109.752 79.1279C109.116 79.1279 108.611 79.0269 108.236 78.8247V78.104C108.766 78.3618 109.278 78.4907 109.77 78.4907C110.168 78.4907 110.458 78.4263 110.64 78.2974C110.822 78.1685 110.912 77.9956 110.912 77.7788C110.912 77.5884 110.824 77.4272 110.649 77.2954C110.476 77.1636 110.167 77.0127 109.721 76.8428C109.267 76.667 108.948 76.5176 108.763 76.3945C108.579 76.2686 108.443 76.1279 108.355 75.9727C108.27 75.8174 108.227 75.6284 108.227 75.4058C108.227 75.0103 108.388 74.6982 108.711 74.4697C109.033 74.2412 109.475 74.127 110.038 74.127C110.586 74.127 111.098 74.2354 111.576 74.4521L111.308 75.0806C110.819 74.8755 110.378 74.7729 109.985 74.7729C109.657 74.7729 109.408 74.8257 109.238 74.9312C109.068 75.0337 108.983 75.1758 108.983 75.3574C108.983 75.5332 109.056 75.6797 109.203 75.7969C109.349 75.9111 109.691 76.0708 110.227 76.2759C110.628 76.4253 110.924 76.5645 111.114 76.6934C111.308 76.8223 111.45 76.9673 111.541 77.1284C111.632 77.2896 111.677 77.4829 111.677 77.7085ZM114.903 79.1279C114.179 79.1279 113.611 78.9097 113.197 78.4731C112.787 78.0337 112.582 77.4302 112.582 76.6626C112.582 75.8892 112.774 75.2739 113.158 74.8169C113.542 74.3569 114.06 74.127 114.714 74.127C115.32 74.127 115.803 74.3232 116.164 74.7158C116.524 75.1055 116.704 75.6343 116.704 76.3022V76.7812H113.4C113.414 77.3291 113.553 77.7451 113.817 78.0293C114.081 78.3135 114.454 78.4556 114.938 78.4556C115.196 78.4556 115.44 78.4336 115.672 78.3896C115.903 78.3428 116.174 78.2534 116.485 78.1216V78.8159C116.218 78.9302 115.967 79.0107 115.733 79.0576C115.499 79.1045 115.222 79.1279 114.903 79.1279ZM114.705 74.7729C114.327 74.7729 114.028 74.8945 113.808 75.1377C113.589 75.3809 113.458 75.7192 113.417 76.1528H115.874C115.868 75.7017 115.764 75.3589 115.562 75.1245C115.36 74.8901 115.074 74.7729 114.705 74.7729ZM120.18 74.127C120.394 74.127 120.583 74.1445 120.747 74.1797L120.651 74.9092C120.472 74.8682 120.298 74.8477 120.128 74.8477C119.873 74.8477 119.635 74.918 119.416 75.0586C119.199 75.1992 119.029 75.394 118.906 75.6431C118.783 75.8892 118.721 76.1631 118.721 76.4648V79.04H117.93V74.2148H118.581L118.669 75.0981H118.704C118.888 74.7788 119.107 74.5371 119.359 74.373C119.611 74.209 119.884 74.127 120.18 74.127Z" fill="white"/>
<path d="M104.813 95.6748C104.121 95.6748 103.578 95.9062 103.182 96.3691C102.787 96.832 102.589 97.4648 102.589 98.2676C102.589 99.0967 102.781 99.7368 103.165 100.188C103.549 100.636 104.095 100.86 104.804 100.86C105.261 100.86 105.775 100.775 106.346 100.605V101.309C106.074 101.408 105.812 101.476 105.56 101.511C105.308 101.549 105.018 101.568 104.69 101.568C103.743 101.568 103.014 101.281 102.501 100.707C101.991 100.129 101.737 99.3135 101.737 98.2588C101.737 97.5967 101.858 97.0166 102.101 96.5186C102.347 96.0205 102.703 95.6367 103.169 95.3672C103.638 95.0977 104.189 94.9629 104.822 94.9629C105.501 94.9629 106.093 95.0889 106.597 95.3408L106.272 96.0264C105.759 95.792 105.273 95.6748 104.813 95.6748ZM111.831 99.0586C111.831 99.8467 111.632 100.462 111.233 100.904C110.835 101.347 110.284 101.568 109.581 101.568C109.144 101.568 108.758 101.467 108.421 101.265C108.084 101.06 107.824 100.767 107.643 100.386C107.461 100.005 107.37 99.5625 107.37 99.0586C107.37 98.2734 107.567 97.6626 107.959 97.2261C108.352 96.7866 108.903 96.5669 109.612 96.5669C110.291 96.5669 110.83 96.791 111.229 97.2393C111.63 97.6846 111.831 98.291 111.831 99.0586ZM108.188 99.0586C108.188 99.665 108.306 100.126 108.544 100.443C108.784 100.756 109.137 100.913 109.603 100.913C110.063 100.913 110.413 100.756 110.653 100.443C110.893 100.126 111.013 99.665 111.013 99.0586C111.013 98.4521 110.892 97.9966 110.649 97.6919C110.408 97.3843 110.055 97.2305 109.59 97.2305C108.655 97.2305 108.188 97.8398 108.188 99.0586ZM113.835 96.6548V99.7617C113.835 100.151 113.921 100.441 114.094 100.632C114.27 100.819 114.541 100.913 114.907 100.913C115.402 100.913 115.762 100.775 115.988 100.5C116.214 100.225 116.326 99.7808 116.326 99.1685V96.6548H117.122V101.48H116.471L116.357 100.843H116.318C116.174 101.074 115.97 101.253 115.707 101.379C115.443 101.505 115.137 101.568 114.788 101.568C114.208 101.568 113.77 101.429 113.474 101.15C113.181 100.872 113.035 100.427 113.035 99.8145V96.6548H113.835ZM120.901 96.5669C121.115 96.5669 121.304 96.5845 121.468 96.6196L121.371 97.3491C121.193 97.3081 121.018 97.2876 120.848 97.2876C120.593 97.2876 120.356 97.3579 120.136 97.4985C119.92 97.6392 119.75 97.834 119.627 98.083C119.504 98.3291 119.442 98.603 119.442 98.9048V101.48H118.651V96.6548H119.301L119.389 97.5381H119.425C119.609 97.2188 119.827 96.9771 120.079 96.813C120.331 96.6489 120.605 96.5669 120.901 96.5669ZM125.511 100.148C125.511 100.6 125.342 100.95 125.006 101.199C124.669 101.445 124.196 101.568 123.586 101.568C122.95 101.568 122.445 101.467 122.07 101.265V100.544C122.6 100.802 123.112 100.931 123.604 100.931C124.002 100.931 124.292 100.866 124.474 100.737C124.655 100.608 124.746 100.436 124.746 100.219C124.746 100.028 124.658 99.8672 124.483 99.7354C124.31 99.6035 124.001 99.4526 123.555 99.2827C123.101 99.1069 122.782 98.9575 122.597 98.8345C122.413 98.7085 122.277 98.5679 122.189 98.4126C122.104 98.2573 122.061 98.0684 122.061 97.8457C122.061 97.4502 122.222 97.1382 122.545 96.9097C122.867 96.6812 123.309 96.5669 123.872 96.5669C124.42 96.5669 124.932 96.6753 125.41 96.8921L125.142 97.5205C124.653 97.3154 124.212 97.2129 123.819 97.2129C123.491 97.2129 123.242 97.2656 123.072 97.3711C122.902 97.4736 122.817 97.6157 122.817 97.7974C122.817 97.9731 122.89 98.1196 123.037 98.2368C123.183 98.3511 123.525 98.5107 124.061 98.7158C124.462 98.8652 124.758 99.0044 124.948 99.1333C125.142 99.2622 125.284 99.4072 125.375 99.5684C125.466 99.7295 125.511 99.9229 125.511 100.148ZM128.737 101.568C128.013 101.568 127.445 101.35 127.031 100.913C126.621 100.474 126.416 99.8701 126.416 99.1025C126.416 98.3291 126.608 97.7139 126.992 97.2568C127.376 96.7969 127.894 96.5669 128.548 96.5669C129.154 96.5669 129.637 96.7632 129.998 97.1558C130.358 97.5454 130.538 98.0742 130.538 98.7422V99.2212H127.234C127.248 99.769 127.387 100.185 127.651 100.469C127.915 100.753 128.288 100.896 128.772 100.896C129.03 100.896 129.274 100.874 129.506 100.83C129.737 100.783 130.008 100.693 130.319 100.562V101.256C130.052 101.37 129.801 101.451 129.567 101.498C129.333 101.544 129.056 101.568 128.737 101.568ZM128.539 97.2129C128.161 97.2129 127.862 97.3345 127.642 97.5776C127.423 97.8208 127.292 98.1592 127.251 98.5928H129.708C129.702 98.1416 129.598 97.7988 129.396 97.5645C129.194 97.3301 128.908 97.2129 128.539 97.2129ZM134.906 100.148C134.906 100.6 134.738 100.95 134.401 101.199C134.064 101.445 133.591 101.568 132.982 101.568C132.346 101.568 131.841 101.467 131.466 101.265V100.544C131.996 100.802 132.507 100.931 132.999 100.931C133.398 100.931 133.688 100.866 133.869 100.737C134.051 100.608 134.142 100.436 134.142 100.219C134.142 100.028 134.054 99.8672 133.878 99.7354C133.705 99.6035 133.396 99.4526 132.951 99.2827C132.497 99.1069 132.177 98.9575 131.993 98.8345C131.808 98.7085 131.672 98.5679 131.584 98.4126C131.499 98.2573 131.457 98.0684 131.457 97.8457C131.457 97.4502 131.618 97.1382 131.94 96.9097C132.262 96.6812 132.705 96.5669 133.267 96.5669C133.815 96.5669 134.328 96.6753 134.805 96.8921L134.537 97.5205C134.048 97.3154 133.607 97.2129 133.215 97.2129C132.886 97.2129 132.637 97.2656 132.467 97.3711C132.298 97.4736 132.213 97.6157 132.213 97.7974C132.213 97.9731 132.286 98.1196 132.432 98.2368C132.579 98.3511 132.92 98.5107 133.456 98.7158C133.858 98.8652 134.154 99.0044 134.344 99.1333C134.537 99.2622 134.679 99.4072 134.77 99.5684C134.861 99.7295 134.906 99.9229 134.906 100.148Z" fill="white"/>
<path d="M102.062 306.5V300.075H102.87V305.779H105.678V306.5H102.062ZM110.864 304.079C110.864 304.867 110.665 305.482 110.266 305.924C109.868 306.367 109.317 306.588 108.614 306.588C108.177 306.588 107.791 306.487 107.454 306.285C107.117 306.08 106.858 305.787 106.676 305.406C106.494 305.025 106.404 304.583 106.404 304.079C106.404 303.293 106.6 302.683 106.992 302.246C107.385 301.807 107.936 301.587 108.645 301.587C109.324 301.587 109.863 301.811 110.262 302.259C110.663 302.705 110.864 303.311 110.864 304.079ZM107.221 304.079C107.221 304.685 107.34 305.146 107.577 305.463C107.817 305.776 108.17 305.933 108.636 305.933C109.096 305.933 109.446 305.776 109.686 305.463C109.926 305.146 110.047 304.685 110.047 304.079C110.047 303.472 109.925 303.017 109.682 302.712C109.442 302.404 109.089 302.25 108.623 302.25C107.688 302.25 107.221 302.86 107.221 304.079ZM113.958 305.942C114.444 305.942 114.797 305.812 115.017 305.551C115.239 305.287 115.351 304.865 115.351 304.285V304.096C115.351 303.452 115.239 302.983 115.017 302.69C114.794 302.397 114.435 302.25 113.94 302.25C113.536 302.25 113.222 302.412 113 302.734C112.78 303.053 112.67 303.51 112.67 304.105C112.67 304.703 112.777 305.158 112.991 305.472C113.208 305.785 113.53 305.942 113.958 305.942ZM115.342 306.456L115.368 305.863H115.333C115.008 306.346 114.51 306.588 113.839 306.588C113.215 306.588 112.727 306.371 112.376 305.938C112.027 305.501 111.853 304.887 111.853 304.096C111.853 303.32 112.029 302.708 112.38 302.259C112.735 301.811 113.218 301.587 113.83 301.587C114.484 301.587 114.988 301.83 115.342 302.316H115.39L115.496 301.675H116.124V306.579C116.124 307.271 115.948 307.791 115.597 308.139C115.248 308.488 114.705 308.662 113.967 308.662C113.263 308.662 112.685 308.56 112.231 308.354V307.625C112.699 307.877 113.293 308.003 114.01 308.003C114.421 308.003 114.744 307.883 114.982 307.643C115.222 307.402 115.342 307.07 115.342 306.645V306.456ZM121.85 304.079C121.85 304.867 121.651 305.482 121.253 305.924C120.854 306.367 120.303 306.588 119.6 306.588C119.164 306.588 118.777 306.487 118.44 306.285C118.103 306.08 117.844 305.787 117.662 305.406C117.481 305.025 117.39 304.583 117.39 304.079C117.39 303.293 117.586 302.683 117.979 302.246C118.371 301.807 118.922 301.587 119.631 301.587C120.311 301.587 120.85 301.811 121.248 302.259C121.65 302.705 121.85 303.311 121.85 304.079ZM118.207 304.079C118.207 304.685 118.326 305.146 118.563 305.463C118.803 305.776 119.156 305.933 119.622 305.933C120.082 305.933 120.432 305.776 120.673 305.463C120.913 305.146 121.033 304.685 121.033 304.079C121.033 303.472 120.911 303.017 120.668 302.712C120.428 302.404 120.075 302.25 119.609 302.25C118.675 302.25 118.207 302.86 118.207 304.079ZM123.854 301.675V304.782C123.854 305.171 123.941 305.461 124.113 305.652C124.289 305.839 124.56 305.933 124.926 305.933C125.422 305.933 125.782 305.795 126.008 305.52C126.233 305.245 126.346 304.801 126.346 304.188V301.675H127.141V306.5H126.491L126.377 305.863H126.337C126.194 306.094 125.99 306.273 125.726 306.399C125.463 306.525 125.156 306.588 124.808 306.588C124.228 306.588 123.79 306.449 123.494 306.17C123.201 305.892 123.054 305.447 123.054 304.834V301.675H123.854ZM130.283 305.942C130.386 305.942 130.506 305.932 130.644 305.911C130.781 305.891 130.885 305.867 130.956 305.841V306.447C130.883 306.479 130.768 306.51 130.613 306.54C130.461 306.572 130.305 306.588 130.147 306.588C129.204 306.588 128.732 306.091 128.732 305.098V302.29H128.051V301.912L128.741 301.596L129.057 300.567H129.528V301.675H130.921V302.29H129.528V305.076C129.528 305.354 129.593 305.568 129.725 305.718C129.86 305.867 130.046 305.942 130.283 305.942Z" fill="white"/>
<rect x="219.476" y="29.24" width="134.465" height="87.72" rx="10" fill="#596480"/>
<rect x="219.476" y="127.16" width="134.465" height="87.72" rx="10" fill="#596480"/>
<rect x="219.476" y="223.04" width="134.465" height="87.72" rx="10" fill="#596480"/>
<rect x="384.271" y="178.16" width="133.454" height="20.4" rx="10" fill="#16223F"/>
<rect x="384.271" y="205.7" width="133.454" height="20.4" rx="10" fill="#16223F"/>
<rect x="383.26" y="83.3" width="134.465" height="87.72" rx="10" fill="#16223F"/>
<path d="M511.67 67.49C511.67 61.5131 507.089 56.76 501.548 56.76C496.008 56.76 491.427 61.5131 491.427 67.49C491.427 73.4669 496.008 78.22 501.548 78.22C507.089 78.22 511.67 73.4669 511.67 67.49Z" stroke="#16223F" stroke-width="2"/>
<path d="M485.383 67.49C485.383 61.5556 480.617 56.76 474.757 56.76C468.896 56.76 464.13 61.5556 464.13 67.49C464.13 73.4243 468.896 78.22 474.757 78.22C480.617 78.22 485.383 73.4243 485.383 67.49Z" stroke="#16223F" stroke-width="2"/>
<path d="M459.097 67.49C459.097 61.5556 454.331 56.76 448.47 56.76C442.61 56.76 437.844 61.5556 437.844 67.49C437.844 73.4243 442.61 78.22 448.47 78.22C454.331 78.22 459.097 73.4243 459.097 67.49Z" stroke="#16223F" stroke-width="2"/>
<path d="M523.462 315H554V10.765C554 6.47538 549.346 3 543.601 3H259L523.459 314.998L523.462 315Z" fill="url(#paint5_linear_215_800)" fill-opacity="0.15"/>
<mask id="mask0_215_800" style="mask-type:alpha" maskUnits="userSpaceOnUse" x="8" y="146" width="153" height="326">
<rect x="8" y="146" width="153" height="326" rx="15" fill="#D9D9D9"/>
</mask>
<g mask="url(#mask0_215_800)">
<rect x="8" y="148" width="153" height="324" fill="url(#paint6_linear_215_800)"/>
<rect x="8" y="146" width="157" height="143" fill="#16223F"/>
<rect x="36" y="307" width="101.508" height="66.22" rx="10" fill="#596480"/>
<rect x="36" y="379.38" width="101.508" height="66.22" rx="10" fill="#596480"/>
</g>
<path d="M30.3584 181.999C30.3584 183.295 30.0039 184.287 29.2949 184.974C28.5895 185.658 27.5762 186 26.2549 186H24.0688V178.147H26.4858C27.7069 178.147 28.6576 178.484 29.3379 179.157C30.0182 179.827 30.3584 180.774 30.3584 181.999ZM29.3164 182.031C29.3164 181.032 29.0693 180.276 28.5752 179.764C28.0846 179.249 27.3416 178.991 26.3462 178.991H25.0571V185.151H26.126C28.2529 185.151 29.3164 184.111 29.3164 182.031ZM35.6113 186L35.4233 185.162H35.3804C35.0868 185.531 34.7931 185.782 34.4995 185.914C34.2095 186.043 33.8424 186.107 33.3984 186.107C32.8184 186.107 32.3636 185.955 32.0342 185.651C31.7048 185.347 31.54 184.917 31.54 184.362C31.54 183.166 32.4836 182.539 34.3706 182.482L35.3696 182.444V182.095C35.3696 181.648 35.2729 181.318 35.0796 181.107C34.8862 180.892 34.5765 180.785 34.1504 180.785C33.8389 180.785 33.5435 180.831 33.2642 180.924C32.9884 181.017 32.7288 181.121 32.4854 181.236L32.1899 180.511C32.4871 180.353 32.8112 180.23 33.1621 180.14C33.513 180.051 33.8604 180.006 34.2041 180.006C34.9167 180.006 35.4466 180.163 35.7939 180.479C36.1413 180.794 36.3149 181.295 36.3149 181.982V186H35.6113ZM33.6187 185.329C34.1593 185.329 34.5837 185.184 34.8916 184.894C35.2031 184.6 35.3589 184.185 35.3589 183.647V183.116L34.4888 183.153C33.812 183.178 33.3179 183.286 33.0063 183.476C32.6984 183.665 32.5444 183.964 32.5444 184.373C32.5444 184.681 32.6375 184.917 32.8237 185.082C33.0135 185.246 33.2785 185.329 33.6187 185.329ZM41.9868 184.373C41.9868 184.924 41.7809 185.352 41.3691 185.656C40.9574 185.957 40.3791 186.107 39.6343 186.107C38.8573 186.107 38.2396 185.984 37.7812 185.737V184.856C38.4294 185.171 39.0542 185.329 39.6558 185.329C40.1427 185.329 40.4972 185.25 40.7192 185.092C40.9412 184.935 41.0522 184.723 41.0522 184.458C41.0522 184.226 40.9448 184.029 40.73 183.868C40.5187 183.707 40.141 183.522 39.5967 183.314C39.0417 183.1 38.6514 182.917 38.4258 182.767C38.2002 182.613 38.0337 182.441 37.9263 182.251C37.8224 182.061 37.7705 181.83 37.7705 181.558C37.7705 181.075 37.9674 180.693 38.3613 180.414C38.7552 180.135 39.2959 179.995 39.9834 179.995C40.653 179.995 41.2796 180.128 41.8633 180.393L41.5356 181.161C40.9377 180.91 40.3988 180.785 39.9189 180.785C39.5179 180.785 39.2135 180.849 39.0059 180.978C38.7982 181.103 38.6943 181.277 38.6943 181.499C38.6943 181.714 38.7839 181.893 38.9629 182.036C39.1419 182.176 39.5591 182.371 40.2144 182.622C40.7049 182.804 41.0666 182.974 41.2993 183.132C41.5356 183.289 41.7093 183.467 41.8203 183.664C41.9313 183.861 41.9868 184.097 41.9868 184.373ZM47.4385 186V182.229C47.4385 181.75 47.3311 181.393 47.1162 181.161C46.9049 180.924 46.5719 180.806 46.1172 180.806C45.5192 180.806 45.0806 180.973 44.8013 181.306C44.5256 181.639 44.3877 182.188 44.3877 182.955V186H43.4209V177.643H44.3877V180.092C44.3877 180.414 44.3698 180.69 44.334 180.919H44.3984C44.5739 180.632 44.8228 180.409 45.145 180.248C45.4673 180.086 45.8307 180.006 46.2354 180.006C46.9515 180.006 47.4904 180.178 47.8521 180.521C48.2137 180.862 48.3945 181.408 48.3945 182.16V186H47.4385ZM53.0137 180.006C53.7907 180.006 54.3905 180.274 54.813 180.812C55.2355 181.345 55.4468 182.092 55.4468 183.051C55.4468 184.025 55.2319 184.779 54.8022 185.312C54.3726 185.842 53.7764 186.107 53.0137 186.107C52.6162 186.107 52.2617 186.036 51.9502 185.893C51.6387 185.749 51.3844 185.536 51.1875 185.253H51.1123C51.0013 185.683 50.9351 185.932 50.9136 186H50.2207V177.643H51.1875V179.673C51.1875 180.077 51.1696 180.482 51.1338 180.887H51.1875C51.585 180.299 52.1937 180.006 53.0137 180.006ZM52.8525 180.806C52.2581 180.806 51.832 180.974 51.5742 181.311C51.3164 181.648 51.1875 182.217 51.1875 183.019V183.062C51.1875 183.868 51.3182 184.444 51.5796 184.792C51.8446 185.135 52.276 185.307 52.874 185.307C53.404 185.307 53.7979 185.114 54.0557 184.727C54.3171 184.337 54.4478 183.775 54.4478 183.041C54.4478 182.296 54.3171 181.737 54.0557 181.365C53.7943 180.992 53.3932 180.806 52.8525 180.806ZM62.1123 183.041C62.1123 184.004 61.8688 184.756 61.3818 185.296C60.8949 185.837 60.2217 186.107 59.3623 186.107C58.8288 186.107 58.3561 185.984 57.9443 185.737C57.5326 185.486 57.2157 185.128 56.9937 184.663C56.7716 184.197 56.6606 183.656 56.6606 183.041C56.6606 182.081 56.9006 181.334 57.3804 180.801C57.8602 180.264 58.5334 179.995 59.3999 179.995C60.2306 179.995 60.8895 180.269 61.3765 180.817C61.867 181.361 62.1123 182.102 62.1123 183.041ZM57.6597 183.041C57.6597 183.782 57.8047 184.346 58.0947 184.732C58.3883 185.116 58.8198 185.307 59.3892 185.307C59.9513 185.307 60.3792 185.116 60.6729 184.732C60.9665 184.346 61.1133 183.782 61.1133 183.041C61.1133 182.299 60.9647 181.743 60.6675 181.37C60.3739 180.994 59.9424 180.806 59.373 180.806C58.2308 180.806 57.6597 181.551 57.6597 183.041ZM67.29 186L67.1021 185.162H67.0591C66.7655 185.531 66.4718 185.782 66.1782 185.914C65.8882 186.043 65.5212 186.107 65.0771 186.107C64.4971 186.107 64.0423 185.955 63.7129 185.651C63.3835 185.347 63.2188 184.917 63.2188 184.362C63.2188 183.166 64.1623 182.539 66.0493 182.482L67.0483 182.444V182.095C67.0483 181.648 66.9517 181.318 66.7583 181.107C66.5649 180.892 66.2552 180.785 65.8291 180.785C65.5176 180.785 65.2222 180.831 64.9429 180.924C64.6672 181.017 64.4076 181.121 64.1641 181.236L63.8687 180.511C64.1659 180.353 64.4899 180.23 64.8408 180.14C65.1917 180.051 65.5391 180.006 65.8828 180.006C66.5954 180.006 67.1253 180.163 67.4727 180.479C67.82 180.794 67.9937 181.295 67.9937 181.982V186H67.29ZM65.2974 185.329C65.8381 185.329 66.2624 185.184 66.5703 184.894C66.8818 184.6 67.0376 184.185 67.0376 183.647V183.116L66.1675 183.153C65.4907 183.178 64.9966 183.286 64.6851 183.476C64.3771 183.665 64.2231 183.964 64.2231 184.373C64.2231 184.681 64.3162 184.917 64.5024 185.082C64.6922 185.246 64.9572 185.329 65.2974 185.329ZM72.5752 179.995C72.8366 179.995 73.0675 180.017 73.2681 180.06L73.1499 180.951C72.9315 180.901 72.7184 180.876 72.5107 180.876C72.1992 180.876 71.9092 180.962 71.6406 181.134C71.3757 181.306 71.168 181.544 71.0176 181.848C70.8672 182.149 70.792 182.484 70.792 182.853V186H69.8252V180.103H70.6201L70.7275 181.182H70.7705C70.9961 180.792 71.2629 180.496 71.5708 180.296C71.8787 180.095 72.2135 179.995 72.5752 179.995ZM76.3511 186.107C75.5848 186.107 74.9904 185.842 74.5679 185.312C74.1453 184.783 73.9341 184.032 73.9341 183.062C73.9341 182.099 74.1453 181.347 74.5679 180.806C74.994 180.265 75.592 179.995 76.3618 179.995C77.1532 179.995 77.7619 180.285 78.188 180.865H78.2578C78.2471 180.794 78.2327 180.65 78.2148 180.436C78.1969 180.217 78.188 180.07 78.188 179.995V177.643H79.1548V186H78.376L78.231 185.21H78.188C77.7762 185.808 77.1639 186.107 76.3511 186.107ZM76.5068 185.307C77.0941 185.307 77.522 185.148 77.7905 184.829C78.0627 184.507 78.1987 183.98 78.1987 183.25V183.073C78.1987 182.253 78.0609 181.669 77.7852 181.322C77.513 180.971 77.0833 180.795 76.4961 180.795C75.9984 180.795 75.6134 180.994 75.3413 181.392C75.0692 181.785 74.9331 182.349 74.9331 183.083C74.9331 183.814 75.0674 184.367 75.3359 184.743C75.6081 185.119 75.9984 185.307 76.5068 185.307Z" fill="white"/>
<path d="M27.4648 247H23.8745V240.575H27.4648V241.287H24.6831V243.291H27.3022V243.994H24.6831V246.288H27.4648V247ZM29.8379 247L28.0098 242.175H28.8579L29.8818 245.018C30.084 245.589 30.2129 246.016 30.2686 246.297H30.3037C30.3125 246.259 30.3228 246.216 30.3345 246.169C30.3491 246.12 30.3652 246.067 30.3828 246.011C30.4004 245.953 30.5088 245.622 30.708 245.018L31.7363 242.175H32.5801L30.7476 247H29.8379ZM35.397 247.088C34.6733 247.088 34.105 246.87 33.6919 246.433C33.2817 245.994 33.0767 245.39 33.0767 244.623C33.0767 243.849 33.2686 243.234 33.6523 242.777C34.0361 242.317 34.5547 242.087 35.208 242.087C35.8145 242.087 36.2979 242.283 36.6582 242.676C37.0186 243.065 37.1987 243.594 37.1987 244.262V244.741H33.894C33.9087 245.289 34.0479 245.705 34.3115 245.989C34.5752 246.273 34.9487 246.416 35.4321 246.416C35.6899 246.416 35.9346 246.394 36.166 246.35C36.3975 246.303 36.6685 246.213 36.979 246.082V246.776C36.7124 246.89 36.4619 246.971 36.2275 247.018C35.9932 247.064 35.7163 247.088 35.397 247.088ZM35.1992 242.733C34.8213 242.733 34.5225 242.854 34.3027 243.098C34.083 243.341 33.9526 243.679 33.9116 244.113H36.3682C36.3623 243.662 36.2583 243.319 36.0562 243.084C35.854 242.85 35.5684 242.733 35.1992 242.733ZM41.7119 247V243.915C41.7119 243.522 41.624 243.231 41.4482 243.041C41.2754 242.847 41.0029 242.75 40.6309 242.75C40.1357 242.75 39.7754 242.888 39.5498 243.164C39.3271 243.436 39.2158 243.881 39.2158 244.5V247H38.4248V242.175H39.062L39.1807 242.834H39.2246C39.374 242.597 39.5835 242.414 39.853 242.285C40.1226 242.153 40.4199 242.087 40.7451 242.087C41.3369 242.087 41.7764 242.23 42.0635 242.518C42.3506 242.805 42.4941 243.251 42.4941 243.858V247H41.7119ZM45.6011 246.442C45.7036 246.442 45.8237 246.432 45.9614 246.411C46.0991 246.391 46.2031 246.367 46.2734 246.341V246.947C46.2002 246.979 46.0859 247.01 45.9307 247.04C45.7783 247.072 45.623 247.088 45.4648 247.088C44.5215 247.088 44.0498 246.591 44.0498 245.598V242.79H43.3687V242.412L44.0586 242.096L44.375 241.067H44.8452V242.175H46.2383V242.79H44.8452V245.576C44.8452 245.854 44.9111 246.068 45.043 246.218C45.1777 246.367 45.3638 246.442 45.6011 246.442ZM50.3823 245.668C50.3823 246.12 50.2139 246.47 49.877 246.719C49.54 246.965 49.0669 247.088 48.4575 247.088C47.8218 247.088 47.3164 246.987 46.9414 246.785V246.064C47.4717 246.322 47.9829 246.451 48.4751 246.451C48.8735 246.451 49.1636 246.386 49.3452 246.257C49.5269 246.128 49.6177 245.956 49.6177 245.739C49.6177 245.548 49.5298 245.387 49.354 245.255C49.1812 245.124 48.8721 244.973 48.4268 244.803C47.9727 244.627 47.6533 244.478 47.4688 244.354C47.2842 244.229 47.1479 244.088 47.0601 243.933C46.9751 243.777 46.9326 243.588 46.9326 243.366C46.9326 242.97 47.0938 242.658 47.416 242.43C47.7383 242.201 48.1807 242.087 48.7432 242.087C49.291 242.087 49.8037 242.195 50.2812 242.412L50.0132 243.041C49.5239 242.835 49.083 242.733 48.6904 242.733C48.3623 242.733 48.1133 242.786 47.9434 242.891C47.7734 242.994 47.6885 243.136 47.6885 243.317C47.6885 243.493 47.7617 243.64 47.9082 243.757C48.0547 243.871 48.396 244.031 48.9321 244.236C49.3335 244.385 49.6294 244.524 49.8198 244.653C50.0132 244.782 50.1553 244.927 50.2461 245.088C50.3369 245.25 50.3823 245.443 50.3823 245.668Z" fill="white"/>
<path d="M27.5176 263.282C27.5176 263.841 27.3154 264.282 26.9111 264.604C26.5068 264.927 25.9443 265.088 25.2236 265.088C24.4619 265.088 23.873 264.987 23.457 264.785V264.011C23.7295 264.128 24.0269 264.221 24.3491 264.288C24.6743 264.355 24.9775 264.389 25.2588 264.389C25.7393 264.389 26.1011 264.297 26.3442 264.112C26.5874 263.928 26.709 263.674 26.709 263.352C26.709 263.138 26.665 262.962 26.5771 262.825C26.4893 262.687 26.3413 262.558 26.1333 262.438C25.9282 262.318 25.6162 262.182 25.1973 262.029C24.6025 261.812 24.1777 261.558 23.9229 261.265C23.668 260.969 23.5405 260.588 23.5405 260.122C23.5405 259.621 23.728 259.223 24.103 258.927C24.481 258.631 24.9775 258.483 25.5928 258.483C26.2344 258.483 26.8247 258.603 27.3638 258.843L27.1133 259.538C26.5625 259.309 26.0498 259.195 25.5752 259.195C25.1943 259.195 24.8955 259.277 24.6787 259.441C24.4648 259.605 24.3579 259.835 24.3579 260.131C24.3579 260.342 24.3989 260.518 24.481 260.658C24.5659 260.796 24.7007 260.922 24.8853 261.036C25.0728 261.15 25.3657 261.281 25.7642 261.427C26.2417 261.603 26.5977 261.774 26.832 261.941C27.0664 262.105 27.2393 262.296 27.3506 262.513C27.4619 262.727 27.5176 262.983 27.5176 263.282ZM30.7563 265.088C30.0327 265.088 29.4644 264.87 29.0513 264.433C28.6411 263.994 28.436 263.39 28.436 262.623C28.436 261.849 28.6279 261.234 29.0117 260.777C29.3955 260.317 29.9141 260.087 30.5674 260.087C31.1738 260.087 31.6572 260.283 32.0176 260.676C32.3779 261.065 32.5581 261.594 32.5581 262.262V262.741H29.2534C29.2681 263.289 29.4072 263.705 29.6709 263.989C29.9346 264.273 30.3081 264.416 30.7915 264.416C31.0493 264.416 31.2939 264.394 31.5254 264.35C31.7568 264.303 32.0278 264.213 32.3384 264.082V264.776C32.0718 264.89 31.8213 264.971 31.5869 265.018C31.3525 265.064 31.0757 265.088 30.7563 265.088ZM30.5586 260.733C30.1807 260.733 29.8818 260.854 29.6621 261.098C29.4424 261.341 29.312 261.679 29.271 262.113H31.7275C31.7217 261.662 31.6177 261.319 31.4155 261.084C31.2134 260.85 30.9277 260.733 30.5586 260.733ZM35.397 264.442C35.4995 264.442 35.6196 264.432 35.7573 264.411C35.895 264.391 35.999 264.367 36.0693 264.341V264.947C35.9961 264.979 35.8818 265.01 35.7266 265.04C35.5742 265.072 35.4189 265.088 35.2607 265.088C34.3174 265.088 33.8457 264.591 33.8457 263.598V260.79H33.1646V260.412L33.8545 260.096L34.1709 259.067H34.6411V260.175H36.0342V260.79H34.6411V263.576C34.6411 263.854 34.707 264.068 34.8389 264.218C34.9736 264.367 35.1597 264.442 35.397 264.442ZM38.6489 264.442C38.7515 264.442 38.8716 264.432 39.0093 264.411C39.147 264.391 39.251 264.367 39.3213 264.341V264.947C39.248 264.979 39.1338 265.01 38.9785 265.04C38.8262 265.072 38.6709 265.088 38.5127 265.088C37.5693 265.088 37.0977 264.591 37.0977 263.598V260.79H36.4165V260.412L37.1064 260.096L37.4229 259.067H37.8931V260.175H39.2861V260.79H37.8931V263.576C37.8931 263.854 37.959 264.068 38.0908 264.218C38.2256 264.367 38.4116 264.442 38.6489 264.442ZM41.0791 265H40.2881V260.175H41.0791V265ZM40.2266 258.87C40.2266 258.694 40.2705 258.566 40.3584 258.487C40.4492 258.408 40.5605 258.369 40.6924 258.369C40.8154 258.369 40.9224 258.408 41.0132 258.487C41.1069 258.566 41.1538 258.694 41.1538 258.87C41.1538 259.042 41.1069 259.17 41.0132 259.252C40.9224 259.334 40.8154 259.375 40.6924 259.375C40.5605 259.375 40.4492 259.334 40.3584 259.252C40.2705 259.17 40.2266 259.042 40.2266 258.87ZM45.8955 265V261.915C45.8955 261.522 45.8076 261.231 45.6318 261.041C45.459 260.847 45.1865 260.75 44.8145 260.75C44.3193 260.75 43.959 260.888 43.7334 261.164C43.5107 261.436 43.3994 261.881 43.3994 262.5V265H42.6084V260.175H43.2456L43.3643 260.834H43.4082C43.5576 260.597 43.7671 260.414 44.0366 260.285C44.3062 260.153 44.6035 260.087 44.9287 260.087C45.5205 260.087 45.96 260.23 46.2471 260.518C46.5342 260.805 46.6777 261.251 46.6777 261.858V265H45.8955ZM50.0088 264.442C50.4951 264.442 50.8481 264.312 51.0679 264.051C51.2905 263.787 51.4019 263.365 51.4019 262.785V262.596C51.4019 261.952 51.2905 261.483 51.0679 261.19C50.8452 260.897 50.4863 260.75 49.9912 260.75C49.5869 260.75 49.2734 260.912 49.0508 261.234C48.8311 261.553 48.7212 262.01 48.7212 262.605C48.7212 263.203 48.8281 263.658 49.042 263.972C49.2588 264.285 49.5811 264.442 50.0088 264.442ZM51.3931 264.956L51.4194 264.363H51.3843C51.0591 264.846 50.561 265.088 49.8901 265.088C49.2661 265.088 48.7783 264.871 48.4268 264.438C48.0781 264.001 47.9038 263.387 47.9038 262.596C47.9038 261.82 48.0796 261.208 48.4312 260.759C48.7856 260.311 49.269 260.087 49.8813 260.087C50.5347 260.087 51.0386 260.33 51.3931 260.816H51.4414L51.5469 260.175H52.1753V265.079C52.1753 265.771 51.9995 266.291 51.6479 266.639C51.2993 266.988 50.7559 267.162 50.0176 267.162C49.3145 267.162 48.7358 267.06 48.2817 266.854V266.125C48.7505 266.377 49.3438 266.503 50.0615 266.503C50.4717 266.503 50.7954 266.383 51.0327 266.143C51.2729 265.902 51.3931 265.57 51.3931 265.145V264.956Z" fill="white"/>
<path d="M28.7612 204.575V208.732C28.7612 209.465 28.54 210.041 28.0977 210.459C27.6553 210.878 27.0415 211.088 26.2563 211.088C25.48 211.088 24.8779 210.877 24.4502 210.455C24.0225 210.03 23.8086 209.45 23.8086 208.715V204.575H24.6216V208.741C24.6216 209.266 24.7607 209.671 25.0391 209.958C25.3203 210.246 25.7422 210.389 26.3047 210.389C26.835 210.389 27.2422 210.247 27.5264 209.963C27.8135 209.679 27.957 209.269 27.957 208.732V204.575H28.7612ZM33.4897 209.668C33.4897 210.12 33.3213 210.47 32.9844 210.719C32.6475 210.965 32.1743 211.088 31.5649 211.088C30.9292 211.088 30.4238 210.987 30.0488 210.785V210.064C30.5791 210.322 31.0903 210.451 31.5825 210.451C31.981 210.451 32.271 210.386 32.4526 210.257C32.6343 210.128 32.7251 209.956 32.7251 209.739C32.7251 209.548 32.6372 209.387 32.4614 209.255C32.2886 209.124 31.9795 208.973 31.5342 208.803C31.0801 208.627 30.7607 208.478 30.5762 208.354C30.3916 208.229 30.2554 208.088 30.1675 207.933C30.0825 207.777 30.04 207.588 30.04 207.366C30.04 206.97 30.2012 206.658 30.5234 206.43C30.8457 206.201 31.2881 206.087 31.8506 206.087C32.3984 206.087 32.9111 206.195 33.3887 206.412L33.1206 207.041C32.6313 206.835 32.1904 206.733 31.7979 206.733C31.4697 206.733 31.2207 206.786 31.0508 206.891C30.8809 206.994 30.7959 207.136 30.7959 207.317C30.7959 207.493 30.8691 207.64 31.0156 207.757C31.1621 207.871 31.5034 208.031 32.0396 208.236C32.4409 208.385 32.7368 208.524 32.9272 208.653C33.1206 208.782 33.2627 208.927 33.3535 209.088C33.4443 209.25 33.4897 209.443 33.4897 209.668ZM36.7153 211.088C35.9917 211.088 35.4233 210.87 35.0103 210.433C34.6001 209.994 34.395 209.39 34.395 208.623C34.395 207.849 34.5869 207.234 34.9707 206.777C35.3545 206.317 35.873 206.087 36.5264 206.087C37.1328 206.087 37.6162 206.283 37.9766 206.676C38.3369 207.065 38.5171 207.594 38.5171 208.262V208.741H35.2124C35.2271 209.289 35.3662 209.705 35.6299 209.989C35.8936 210.273 36.2671 210.416 36.7505 210.416C37.0083 210.416 37.2529 210.394 37.4844 210.35C37.7158 210.303 37.9868 210.213 38.2974 210.082V210.776C38.0308 210.89 37.7803 210.971 37.5459 211.018C37.3115 211.064 37.0347 211.088 36.7153 211.088ZM36.5176 206.733C36.1396 206.733 35.8408 206.854 35.6211 207.098C35.4014 207.341 35.271 207.679 35.23 208.113H37.6865C37.6807 207.662 37.5767 207.319 37.3745 207.084C37.1724 206.85 36.8867 206.733 36.5176 206.733ZM41.9932 206.087C42.207 206.087 42.396 206.104 42.5601 206.14L42.4634 206.869C42.2847 206.828 42.1104 206.808 41.9404 206.808C41.6855 206.808 41.4482 206.878 41.2285 207.019C41.0117 207.159 40.8418 207.354 40.7188 207.603C40.5957 207.849 40.5342 208.123 40.5342 208.425V211H39.7432V206.175H40.3936L40.4814 207.058H40.5166C40.7012 206.739 40.9194 206.497 41.1714 206.333C41.4233 206.169 41.6973 206.087 41.9932 206.087Z" fill="white"/>
<path d="M26.6255 223.195C25.9341 223.195 25.3906 223.426 24.9951 223.889C24.5996 224.352 24.4019 224.985 24.4019 225.788C24.4019 226.617 24.5938 227.257 24.9775 227.708C25.3613 228.156 25.9077 228.38 26.6167 228.38C27.0737 228.38 27.5879 228.295 28.1592 228.125V228.829C27.8867 228.928 27.6245 228.996 27.3726 229.031C27.1206 229.069 26.8306 229.088 26.5024 229.088C25.5562 229.088 24.8267 228.801 24.314 228.227C23.8042 227.649 23.5493 226.833 23.5493 225.779C23.5493 225.117 23.6709 224.537 23.9141 224.039C24.1602 223.541 24.5161 223.157 24.9819 222.887C25.4507 222.618 26.0015 222.483 26.6343 222.483C27.314 222.483 27.9058 222.609 28.4097 222.861L28.0845 223.546C27.5718 223.312 27.0854 223.195 26.6255 223.195ZM33.6436 226.579C33.6436 227.367 33.4443 227.982 33.0459 228.424C32.6475 228.867 32.0967 229.088 31.3936 229.088C30.957 229.088 30.5703 228.987 30.2334 228.785C29.8965 228.58 29.6372 228.287 29.4556 227.906C29.2739 227.525 29.1831 227.083 29.1831 226.579C29.1831 225.793 29.3794 225.183 29.772 224.746C30.1646 224.307 30.7153 224.087 31.4243 224.087C32.104 224.087 32.6431 224.311 33.0415 224.759C33.4429 225.205 33.6436 225.811 33.6436 226.579ZM30.0005 226.579C30.0005 227.185 30.1191 227.646 30.3564 227.963C30.5967 228.276 30.9497 228.433 31.4155 228.433C31.8755 228.433 32.2256 228.276 32.4658 227.963C32.7061 227.646 32.8262 227.185 32.8262 226.579C32.8262 225.972 32.7046 225.517 32.4614 225.212C32.2212 224.904 31.8682 224.75 31.4023 224.75C30.4678 224.75 30.0005 225.36 30.0005 226.579ZM35.6475 224.175V227.282C35.6475 227.671 35.7339 227.961 35.9067 228.152C36.0825 228.339 36.3535 228.433 36.7197 228.433C37.2148 228.433 37.5752 228.295 37.8008 228.02C38.0264 227.745 38.1392 227.301 38.1392 226.688V224.175H38.9346V229H38.2842L38.1699 228.363H38.1304C37.9868 228.594 37.7832 228.773 37.5195 228.899C37.2559 229.025 36.9497 229.088 36.6011 229.088C36.021 229.088 35.583 228.949 35.2871 228.67C34.9941 228.392 34.8477 227.947 34.8477 227.334V224.175H35.6475ZM42.7139 224.087C42.9277 224.087 43.1167 224.104 43.2808 224.14L43.1841 224.869C43.0054 224.828 42.8311 224.808 42.6611 224.808C42.4062 224.808 42.1689 224.878 41.9492 225.019C41.7324 225.159 41.5625 225.354 41.4395 225.603C41.3164 225.849 41.2549 226.123 41.2549 226.425V229H40.4639V224.175H41.1143L41.2021 225.058H41.2373C41.4219 224.739 41.6401 224.497 41.8921 224.333C42.144 224.169 42.418 224.087 42.7139 224.087ZM47.3237 227.668C47.3237 228.12 47.1553 228.47 46.8184 228.719C46.4814 228.965 46.0083 229.088 45.3989 229.088C44.7632 229.088 44.2578 228.987 43.8828 228.785V228.064C44.4131 228.322 44.9243 228.451 45.4165 228.451C45.8149 228.451 46.105 228.386 46.2866 228.257C46.4683 228.128 46.5591 227.956 46.5591 227.739C46.5591 227.548 46.4712 227.387 46.2954 227.255C46.1226 227.124 45.8135 226.973 45.3682 226.803C44.9141 226.627 44.5947 226.478 44.4102 226.354C44.2256 226.229 44.0894 226.088 44.0015 225.933C43.9165 225.777 43.874 225.588 43.874 225.366C43.874 224.97 44.0352 224.658 44.3574 224.43C44.6797 224.201 45.1221 224.087 45.6846 224.087C46.2324 224.087 46.7451 224.195 47.2227 224.412L46.9546 225.041C46.4653 224.835 46.0244 224.733 45.6318 224.733C45.3037 224.733 45.0547 224.786 44.8848 224.891C44.7148 224.994 44.6299 225.136 44.6299 225.317C44.6299 225.493 44.7031 225.64 44.8496 225.757C44.9961 225.871 45.3374 226.031 45.8735 226.236C46.2749 226.385 46.5708 226.524 46.7612 226.653C46.9546 226.782 47.0967 226.927 47.1875 227.088C47.2783 227.25 47.3237 227.443 47.3237 227.668ZM50.5493 229.088C49.8257 229.088 49.2573 228.87 48.8442 228.433C48.4341 227.994 48.229 227.39 48.229 226.623C48.229 225.849 48.4209 225.234 48.8047 224.777C49.1885 224.317 49.707 224.087 50.3604 224.087C50.9668 224.087 51.4502 224.283 51.8105 224.676C52.1709 225.065 52.3511 225.594 52.3511 226.262V226.741H49.0464C49.061 227.289 49.2002 227.705 49.4639 227.989C49.7275 228.273 50.1011 228.416 50.5845 228.416C50.8423 228.416 51.0869 228.394 51.3184 228.35C51.5498 228.303 51.8208 228.213 52.1313 228.082V228.776C51.8647 228.89 51.6143 228.971 51.3799 229.018C51.1455 229.064 50.8687 229.088 50.5493 229.088ZM50.3516 224.733C49.9736 224.733 49.6748 224.854 49.4551 225.098C49.2354 225.341 49.105 225.679 49.064 226.113H51.5205C51.5146 225.662 51.4106 225.319 51.2085 225.084C51.0063 224.85 50.7207 224.733 50.3516 224.733ZM56.7192 227.668C56.7192 228.12 56.5508 228.47 56.2139 228.719C55.877 228.965 55.4038 229.088 54.7944 229.088C54.1587 229.088 53.6533 228.987 53.2783 228.785V228.064C53.8086 228.322 54.3198 228.451 54.812 228.451C55.2104 228.451 55.5005 228.386 55.6821 228.257C55.8638 228.128 55.9546 227.956 55.9546 227.739C55.9546 227.548 55.8667 227.387 55.6909 227.255C55.5181 227.124 55.209 226.973 54.7637 226.803C54.3096 226.627 53.9902 226.478 53.8057 226.354C53.6211 226.229 53.4849 226.088 53.397 225.933C53.312 225.777 53.2695 225.588 53.2695 225.366C53.2695 224.97 53.4307 224.658 53.7529 224.43C54.0752 224.201 54.5176 224.087 55.0801 224.087C55.6279 224.087 56.1406 224.195 56.6182 224.412L56.3501 225.041C55.8608 224.835 55.4199 224.733 55.0273 224.733C54.6992 224.733 54.4502 224.786 54.2803 224.891C54.1104 224.994 54.0254 225.136 54.0254 225.317C54.0254 225.493 54.0986 225.64 54.2451 225.757C54.3916 225.871 54.7329 226.031 55.269 226.236C55.6704 226.385 55.9663 226.524 56.1567 226.653C56.3501 226.782 56.4922 226.927 56.583 227.088C56.6738 227.25 56.7192 227.443 56.7192 227.668Z" fill="white"/>
<path d="M143.129 139H26.6789C12.5838 139 1.15738 150.426 1.15738 164.525V452.681C1.15738 466.777 12.5838 478.207 26.6826 478.207H143.133C157.228 478.207 168.658 466.78 168.658 452.681V164.525C168.658 150.43 157.231 139 143.133 139H143.129ZM158.802 452.678C158.802 461.332 151.787 468.35 143.129 468.35H26.6789C18.0243 468.35 11.0062 461.332 11.0062 452.678V164.525C11.0062 155.871 18.0243 148.853 26.6789 148.853H41.3342C42.6317 148.853 43.6858 149.907 43.6858 151.204V151.901C43.6858 156.785 47.6445 160.743 52.5284 160.743H117.279C122.163 160.743 126.122 156.785 126.122 151.901V151.204C126.122 149.907 127.176 148.853 128.474 148.853H143.129C151.784 148.853 158.802 155.871 158.802 164.525V452.681V452.678Z" fill="#211F1F"/>
<path d="M143.129 139.715H26.6789C12.9782 139.715 1.86877 150.821 1.86877 164.525V452.681C1.86877 466.382 12.9782 477.492 26.6789 477.492H143.129C156.83 477.492 167.939 466.382 167.939 452.681V164.525C167.939 150.825 156.833 139.715 143.129 139.715ZM158.802 452.681C158.802 461.336 151.787 468.354 143.129 468.354H26.6789C18.0243 468.354 11.0062 461.336 11.0062 452.681V164.525C11.0062 155.871 18.0243 148.853 26.6789 148.853H41.3342C42.6317 148.853 43.6858 149.907 43.6858 151.204V151.901C43.6858 156.785 47.6445 160.743 52.5284 160.743H117.279C122.163 160.743 126.122 156.785 126.122 151.901V151.204C126.122 149.907 127.176 148.853 128.474 148.853H143.129C151.784 148.853 158.802 155.871 158.802 164.525V452.681Z" fill="url(#paint7_linear_215_800)"/>
<path d="M143.129 141.142H26.6789C13.767 141.142 3.29892 151.61 3.29892 164.522V452.678C3.29892 465.59 13.767 476.061 26.6826 476.061H143.133C156.045 476.061 166.513 465.593 166.513 452.682V164.525C166.513 151.613 156.045 141.145 143.133 141.145L143.129 141.142ZM158.802 452.678C158.802 461.332 151.787 468.35 143.129 468.35H26.6789C18.0243 468.35 11.0062 461.332 11.0062 452.678V164.525C11.0062 155.871 18.0243 148.853 26.6789 148.853H41.3342C42.6317 148.853 43.6858 149.907 43.6858 151.204V151.901C43.6858 156.785 47.6445 160.743 52.5284 160.743H117.279C122.163 160.743 126.122 156.785 126.122 151.901V151.204C126.122 149.907 127.176 148.853 128.474 148.853H143.129C151.784 148.853 158.802 155.871 158.802 164.525V452.682V452.678Z" fill="#211F1F"/>
<path d="M143.129 143.139H26.6789C14.8875 143.139 5.29669 152.73 5.29669 164.522V452.678C5.29669 464.469 14.8875 474.06 26.6789 474.06H143.129C154.92 474.06 164.511 464.469 164.511 452.678V164.525C164.511 152.734 154.92 143.143 143.129 143.143V143.139ZM162.226 452.678C162.226 463.209 153.66 471.775 143.129 471.775H26.6789C16.1481 471.775 7.58198 463.209 7.58198 452.678V164.525C7.58198 153.995 16.1481 145.428 26.6789 145.428H143.129C153.66 145.428 162.226 153.995 162.226 164.525V452.682V452.678Z" fill="url(#paint8_linear_215_800)"/>
<path opacity="0.4" d="M10.1806 461.41C8.79467 458.804 8.00956 455.829 8.00956 452.678V164.525C8.00956 161.27 8.84627 158.211 10.317 155.542C11.8946 151.705 14.2056 148.333 16.9959 145.907C17.2392 145.694 16.9775 145.31 16.69 145.461C9.83779 149.066 5.15295 156.258 5.15295 164.525V452.681C5.15295 460.676 9.53555 467.668 16.0228 471.38C16.373 471.579 16.7195 471.107 16.4246 470.835C13.8112 468.406 11.655 465.125 10.1769 461.413L10.1806 461.41Z" fill="url(#paint9_linear_215_800)"/>
<path opacity="0.4" d="M153.015 146.014C155.838 148.499 158.153 151.963 159.697 155.926C161.039 158.502 161.798 161.425 161.798 164.525V452.681C161.798 455.114 161.33 457.44 160.479 459.574C159.229 463.824 157.15 467.451 154.515 470.142C154.231 470.433 154.607 470.89 154.946 470.665C160.788 466.813 164.651 460.19 164.651 452.685V164.525C164.651 156.342 160.059 149.21 153.317 145.572C153.033 145.417 152.764 145.801 153.007 146.014H153.015Z" fill="url(#paint10_linear_215_800)"/>
<path d="M75.901 153.464C75.2118 153.464 74.6515 152.903 74.6515 152.214C74.6515 151.525 75.2118 150.965 75.901 150.965H94.3197C95.009 150.965 95.5692 151.525 95.5692 152.214C95.5692 152.903 95.009 153.464 94.3197 153.464H75.901Z" fill="url(#paint11_linear_215_800)"/>
<path d="M94.3197 151.392H75.901C75.4476 151.392 75.079 151.761 75.079 152.214C75.079 152.667 75.4476 153.036 75.901 153.036H94.3197C94.7731 153.036 95.1416 152.667 95.1416 152.214C95.1416 151.761 94.7731 151.392 94.3197 151.392Z" fill="#211F1F"/>
<path d="M104.419 152.214C104.419 153.08 103.715 153.784 102.849 153.784C101.983 153.784 101.279 153.08 101.279 152.214C101.279 151.348 101.983 150.644 102.849 150.644C103.715 150.644 104.419 151.348 104.419 152.214Z" fill="url(#paint12_linear_215_800)"/>
<path d="M103.42 152.214C103.42 152.531 103.166 152.785 102.849 152.785C102.532 152.785 102.278 152.531 102.278 152.214C102.278 151.897 102.532 151.643 102.849 151.643C103.166 151.643 103.42 151.897 103.42 152.214Z" fill="#211F1F"/>
<path d="M104.939 152.214C104.939 153.368 104.003 154.304 102.849 154.304C101.695 154.304 100.763 153.368 100.763 152.214C100.763 151.06 101.699 150.124 102.849 150.124C103.999 150.124 104.939 151.06 104.939 152.214Z" fill="url(#paint13_linear_215_800)"/>
<path d="M0.453371 208.911H1.1537V233.327H0.453371C0.202727 233.327 0 233.124 0 232.874V209.368C0 209.118 0.202727 208.915 0.453371 208.915V208.911Z" fill="#211F1F"/>
<path d="M169.355 256.173H168.654V217.194H169.355C169.605 217.194 169.808 217.396 169.808 217.647V255.716C169.808 255.966 169.605 256.169 169.355 256.169V256.173Z" fill="#211F1F"/>
<path d="M0.453371 240.035H1.1537V264.451H0.453371C0.202727 264.451 0 264.248 0 263.998V240.492C0 240.242 0.202727 240.039 0.453371 240.039V240.035Z" fill="#211F1F"/>
<path d="M3.72648 443.448H1.15738V445.734H3.72648V443.448Z" fill="#211F1F"/>
<path d="M168.65 443.448H166.081V445.734H168.65V443.448Z" fill="#211F1F"/>
<path d="M3.72648 171.311H1.15738V173.596H3.72648V171.311Z" fill="#211F1F"/>
<path d="M168.65 171.311H166.081V173.596H168.65V171.311Z" fill="#211F1F"/>
<path opacity="0.8" d="M143.532 468.498C152.187 468.498 159.205 461.48 159.205 452.825V164.673C159.205 156.018 152.191 149 143.532 149H128.877C127.58 149 126.525 150.054 126.525 151.352V152.052C126.525 156.936 122.567 160.895 117.683 160.895H52.9318C48.0479 160.895 44.0892 156.936 44.0892 152.052V151.352C44.0892 150.054 43.035 149 41.7375 149H38L138.35 468.498H143.532Z" fill="url(#paint14_linear_215_800)" fill-opacity="0.15"/>
<defs>
<linearGradient id="paint0_linear_215_800" x1="17" y1="335.671" x2="609.113" y2="335.671" gradientUnits="userSpaceOnUse">
<stop stop-color="#F0F0F0"/>
<stop offset="0.01" stop-color="#D7D7D7"/>
<stop offset="0.02" stop-color="#C4C4C4"/>
<stop offset="0.03" stop-color="#B5B5B5"/>
<stop offset="0.08" stop-color="#BFBFBF"/>
<stop offset="0.19" stop-color="#D3D3D3"/>
<stop offset="0.3" stop-color="#DFDFDF"/>
<stop offset="0.41" stop-color="#E4E4E4"/>
<stop offset="0.49" stop-color="#E4E4E4"/>
<stop offset="0.59" stop-color="#E8E8E8"/>
<stop offset="0.68" stop-color="#E4E4E4"/>
<stop offset="0.78" stop-color="#D8D8D8"/>
<stop offset="0.87" stop-color="#C5C5C5"/>
<stop offset="0.95" stop-color="#ABABAB"/>
<stop offset="0.97" stop-color="#AAAAAA"/>
<stop offset="0.98" stop-color="#CFCFCF"/>
<stop offset="0.99" stop-color="#DCDCDC"/>
<stop offset="1" stop-color="#7D7D7D"/>
</linearGradient>
<linearGradient id="paint1_linear_215_800" x1="313.195" y1="348" x2="313.195" y2="340.916" gradientUnits="userSpaceOnUse">
<stop stop-color="#4D4D4D"/>
<stop offset="1" stop-color="#B0B0B0"/>
</linearGradient>
<linearGradient id="paint2_linear_215_800" x1="312.811" y1="336.964" x2="312.811" y2="330.331" gradientUnits="userSpaceOnUse">
<stop stop-color="#696969"/>
<stop offset="0.03" stop-color="#707070"/>
<stop offset="0.15" stop-color="#939393"/>
<stop offset="0.28" stop-color="#B0B0B0"/>
<stop offset="0.43" stop-color="#C6C6C6"/>
<stop offset="0.58" stop-color="#D6D6D6"/>
<stop offset="0.76" stop-color="#E0E0E0"/>
<stop offset="1" stop-color="#E3E3E3"/>
</linearGradient>
<linearGradient id="paint3_linear_215_800" x1="258.997" y1="333.647" x2="366.625" y2="333.647" gradientUnits="userSpaceOnUse">
<stop stop-color="#868686"/>
<stop offset="0.04" stop-color="#ABABAB"/>
<stop offset="0.07" stop-color="#C9C9C9"/>
<stop offset="0.11" stop-color="#E1E1E1"/>
<stop offset="0.14" stop-color="#F1F1F1"/>
<stop offset="0.18" stop-color="#FBFBFB"/>
<stop offset="0.23" stop-color="white"/>
<stop offset="0.82" stop-color="#DFDFDF"/>
<stop offset="0.86" stop-color="#D9D9D9"/>
<stop offset="0.9" stop-color="#C9C9C9"/>
<stop offset="0.94" stop-color="#AEAEAE"/>
<stop offset="0.99" stop-color="#8A8A8A"/>
<stop offset="1" stop-color="#808080"/>
</linearGradient>
<linearGradient id="paint4_linear_215_800" x1="140.111" y1="17" x2="567.75" y2="317.389" gradientUnits="userSpaceOnUse">
<stop stop-color="#905C7C"/>
<stop offset="1" stop-color="#16223F"/>
</linearGradient>
<linearGradient id="paint5_linear_215_800" x1="406.5" y1="315" x2="406.5" y2="3" gradientUnits="userSpaceOnUse">
<stop stop-color="white"/>
<stop offset="0.96" stop-color="white"/>
<stop offset="1" stop-color="white"/>
</linearGradient>
<linearGradient id="paint6_linear_215_800" x1="19" y1="148" x2="220.042" y2="190.916" gradientUnits="userSpaceOnUse">
<stop stop-color="#945C7B"/>
<stop offset="1" stop-color="#16223F"/>
</linearGradient>
<linearGradient id="paint7_linear_215_800" x1="84.9058" y1="477.488" x2="84.9058" y2="139.715" gradientUnits="userSpaceOnUse">
<stop stop-color="#040404"/>
<stop offset="0.03" stop-color="#464647"/>
<stop offset="0.06" stop-color="#7B7B7D"/>
<stop offset="0.08" stop-color="#A2A1A3"/>
<stop offset="0.1" stop-color="#B9B8BB"/>
<stop offset="0.11" stop-color="#C2C1C4"/>
</linearGradient>
<linearGradient id="paint8_linear_215_800" x1="5.29301" y1="308.602" x2="164.511" y2="308.602" gradientUnits="userSpaceOnUse">
<stop stop-color="#6C6C6C"/>
<stop offset="0.29" stop-color="#6C6C6F"/>
<stop offset="0.72" stop-color="#6C6C6F"/>
<stop offset="1" stop-color="#6C6C6C"/>
</linearGradient>
<linearGradient id="paint9_linear_215_800" x1="5.15295" y1="308.424" x2="17.0917" y2="308.424" gradientUnits="userSpaceOnUse">
<stop stop-color="white"/>
<stop offset="0.21" stop-color="white"/>
<stop offset="1" stop-color="white"/>
</linearGradient>
<linearGradient id="paint10_linear_215_800" x1="152.919" y1="308.126" x2="164.655" y2="308.126" gradientUnits="userSpaceOnUse">
<stop stop-color="white"/>
<stop offset="0.76" stop-color="white"/>
<stop offset="1" stop-color="white"/>
</linearGradient>
<linearGradient id="paint11_linear_215_800" x1="85.1085" y1="153.464" x2="85.1085" y2="150.965" gradientUnits="userSpaceOnUse">
<stop stop-color="white"/>
<stop offset="1" stop-color="white"/>
</linearGradient>
<linearGradient id="paint12_linear_215_800" x1="101.279" y1="152.214" x2="104.419" y2="152.214" gradientUnits="userSpaceOnUse">
<stop stop-color="#151823"/>
<stop offset="1"/>
</linearGradient>
<linearGradient id="paint13_linear_215_800" x1="100.759" y1="152.214" x2="104.935" y2="152.214" gradientUnits="userSpaceOnUse">
<stop stop-color="white"/>
<stop offset="1" stop-color="white"/>
</linearGradient>
<linearGradient id="paint14_linear_215_800" x1="49.3711" y1="311.665" x2="168.936" y2="303.301" gradientUnits="userSpaceOnUse">
<stop stop-color="white"/>
<stop offset="1" stop-color="white"/>
</linearGradient>
</defs>
</svg>
