<svg width="350" height="382" viewBox="0 0 350 382" fill="none" xmlns="http://www.w3.org/2000/svg">
<path d="M156.231 4.43572C101.4 11.6488 -12.5917 30.4029 -47.222 80.8945C-94.8387 167.452 -14.0346 261.222 7.60936 281.418C29.2533 301.615 79.7559 346.336 144.688 343.451C209.62 340.566 209.62 295.845 257.236 222.271C304.853 148.697 340.926 88.1076 317.839 40.5012C294.753 -7.10522 211.063 -2.77737 156.231 4.43572Z" fill="#4EF4FF" fill-opacity="0.15"/>
<path d="M324.2 256.657C338.218 300.301 328.483 342.457 284.839 356.476C241.195 370.494 194.451 346.477 180.433 302.834C166.415 259.19 175.562 184.137 219.206 170.119C262.849 156.101 310.181 213.013 324.2 256.657Z" fill="#FF3989" fill-opacity="0.15"/>
</svg>
