<svg width="546" height="546" viewBox="0 0 546 546" fill="none" xmlns="http://www.w3.org/2000/svg">
<circle cx="273" cy="273" r="273" fill="url(#paint0_linear_215_1712)"/>
<path d="M173.037 57V41.7273H179.062C180.221 41.7273 181.208 41.9485 182.023 42.391C182.838 42.8285 183.46 43.4375 183.887 44.218C184.32 44.9936 184.536 45.8885 184.536 46.9027C184.536 47.9169 184.317 48.8118 183.88 49.5874C183.442 50.3629 182.809 50.967 181.978 51.3995C181.153 51.832 180.154 52.0483 178.98 52.0483H175.14V49.4606H178.458C179.08 49.4606 179.592 49.3537 179.995 49.1399C180.402 48.9212 180.706 48.6204 180.904 48.2376C181.108 47.8498 181.21 47.4048 181.21 46.9027C181.21 46.3956 181.108 45.9531 180.904 45.5753C180.706 45.1925 180.402 44.8967 179.995 44.6879C179.587 44.4741 179.07 44.3672 178.443 44.3672H176.266V57H173.037ZM186.634 57V41.7273H192.659C193.813 41.7273 194.797 41.9336 195.612 42.3462C196.433 42.7539 197.057 43.3331 197.484 44.0838C197.917 44.8295 198.133 45.707 198.133 46.7163C198.133 47.7305 197.914 48.603 197.477 49.3338C197.039 50.0597 196.405 50.6165 195.575 51.0043C194.75 51.392 193.75 51.5859 192.577 51.5859H188.543V48.9908H192.055C192.672 48.9908 193.184 48.9062 193.591 48.7372C193.999 48.5682 194.302 48.3146 194.501 47.9766C194.705 47.6385 194.807 47.2184 194.807 46.7163C194.807 46.2092 194.705 45.7816 194.501 45.4336C194.302 45.0856 193.996 44.8221 193.584 44.6431C193.176 44.4592 192.662 44.3672 192.04 44.3672H189.863V57H186.634ZM194.881 50.0497L198.677 57H195.113L191.399 50.0497H194.881ZM214.45 49.3636C214.45 51.0291 214.134 52.446 213.503 53.6143C212.876 54.7827 212.021 55.6751 210.937 56.2915C209.858 56.9031 208.645 57.2088 207.298 57.2088C205.941 57.2088 204.723 56.9006 203.644 56.2841C202.565 55.6676 201.712 54.7752 201.086 53.6069C200.46 52.4386 200.146 51.0241 200.146 49.3636C200.146 47.6982 200.46 46.2812 201.086 45.1129C201.712 43.9446 202.565 43.0547 203.644 42.4432C204.723 41.8267 205.941 41.5185 207.298 41.5185C208.645 41.5185 209.858 41.8267 210.937 42.4432C212.021 43.0547 212.876 43.9446 213.503 45.1129C214.134 46.2812 214.45 47.6982 214.45 49.3636ZM211.176 49.3636C211.176 48.2848 211.014 47.375 210.691 46.6342C210.373 45.8935 209.923 45.3317 209.341 44.9489C208.76 44.5661 208.079 44.3746 207.298 44.3746C206.517 44.3746 205.836 44.5661 205.255 44.9489C204.673 45.3317 204.221 45.8935 203.897 46.6342C203.579 47.375 203.42 48.2848 203.42 49.3636C203.42 50.4425 203.579 51.3523 203.897 52.093C204.221 52.8338 204.673 53.3956 205.255 53.7784C205.836 54.1612 206.517 54.3526 207.298 54.3526C208.079 54.3526 208.76 54.1612 209.341 53.7784C209.923 53.3956 210.373 52.8338 210.691 52.093C211.014 51.3523 211.176 50.4425 211.176 49.3636ZM222.256 57H216.842V41.7273H222.3C223.837 41.7273 225.159 42.033 226.268 42.6445C227.376 43.2511 228.229 44.1236 228.826 45.2621C229.427 46.4006 229.728 47.7628 229.728 49.3487C229.728 50.9396 229.427 52.3068 228.826 53.4503C228.229 54.5937 227.371 55.4712 226.253 56.0827C225.139 56.6942 223.807 57 222.256 57ZM220.071 54.2333H222.121C223.076 54.2333 223.879 54.0643 224.53 53.7262C225.186 53.3832 225.679 52.8537 226.007 52.1378C226.34 51.4169 226.506 50.4872 226.506 49.3487C226.506 48.2202 226.34 47.2979 226.007 46.582C225.679 45.8661 225.189 45.3391 224.538 45.0011C223.886 44.663 223.083 44.494 222.129 44.494H220.071V54.2333ZM241.553 41.7273H244.783V51.6456C244.783 52.7592 244.517 53.7337 243.985 54.5689C243.458 55.4041 242.719 56.0554 241.77 56.5227C240.82 56.9851 239.714 57.2163 238.451 57.2163C237.183 57.2163 236.075 56.9851 235.125 56.5227C234.176 56.0554 233.437 55.4041 232.91 54.5689C232.383 53.7337 232.12 52.7592 232.12 51.6456V41.7273H235.349V51.3697C235.349 51.9513 235.476 52.4684 235.729 52.9208C235.988 53.3732 236.351 53.7287 236.818 53.9872C237.285 54.2457 237.83 54.375 238.451 54.375C239.078 54.375 239.622 54.2457 240.084 53.9872C240.552 53.7287 240.912 53.3732 241.166 52.9208C241.424 52.4684 241.553 51.9513 241.553 51.3697V41.7273ZM260.915 47.0742H257.648C257.589 46.6516 257.467 46.2763 257.283 45.9482C257.099 45.6151 256.863 45.3317 256.575 45.098C256.286 44.8643 255.953 44.6854 255.575 44.5611C255.202 44.4368 254.797 44.3746 254.36 44.3746C253.569 44.3746 252.881 44.571 252.294 44.9638C251.707 45.3516 251.252 45.9183 250.929 46.6641C250.606 47.4048 250.445 48.3047 250.445 49.3636C250.445 50.4524 250.606 51.3672 250.929 52.108C251.257 52.8487 251.715 53.408 252.301 53.7859C252.888 54.1637 253.567 54.3526 254.337 54.3526C254.77 54.3526 255.17 54.2955 255.538 54.1811C255.911 54.0668 256.241 53.9002 256.53 53.6815C256.818 53.4577 257.057 53.1868 257.246 52.8686C257.44 52.5504 257.574 52.1875 257.648 51.7798L260.915 51.7947C260.83 52.4957 260.619 53.1719 260.281 53.8232C259.948 54.4695 259.498 55.0487 258.931 55.5607C258.369 56.0678 257.698 56.4705 256.918 56.7688C256.142 57.0621 255.265 57.2088 254.285 57.2088C252.923 57.2088 251.705 56.9006 250.631 56.2841C249.562 55.6676 248.717 54.7752 248.095 53.6069C247.479 52.4386 247.171 51.0241 247.171 49.3636C247.171 47.6982 247.484 46.2812 248.11 45.1129C248.737 43.9446 249.587 43.0547 250.661 42.4432C251.735 41.8267 252.943 41.5185 254.285 41.5185C255.17 41.5185 255.99 41.6428 256.746 41.8913C257.507 42.1399 258.18 42.5028 258.767 42.9801C259.354 43.4524 259.831 44.0316 260.199 44.7177C260.572 45.4038 260.81 46.1893 260.915 47.0742ZM262.649 44.3896V41.7273H275.192V44.3896H270.516V57H267.324V44.3896H262.649ZM287.883 51.6903H290.627L292.006 53.4652L293.364 55.0462L295.922 58.2528H292.909L291.149 56.0902L290.246 54.8075L287.883 51.6903ZM296.153 49.3636C296.153 51.0291 295.837 52.446 295.206 53.6143C294.579 54.7827 293.724 55.6751 292.64 56.2915C291.561 56.9031 290.348 57.2088 289.001 57.2088C287.644 57.2088 286.426 56.9006 285.347 56.2841C284.268 55.6676 283.416 54.7752 282.789 53.6069C282.163 52.4386 281.849 51.0241 281.849 49.3636C281.849 47.6982 282.163 46.2812 282.789 45.1129C283.416 43.9446 284.268 43.0547 285.347 42.4432C286.426 41.8267 287.644 41.5185 289.001 41.5185C290.348 41.5185 291.561 41.8267 292.64 42.4432C293.724 43.0547 294.579 43.9446 295.206 45.1129C295.837 46.2812 296.153 47.6982 296.153 49.3636ZM292.879 49.3636C292.879 48.2848 292.717 47.375 292.394 46.6342C292.076 45.8935 291.626 45.3317 291.044 44.9489C290.463 44.5661 289.782 44.3746 289.001 44.3746C288.221 44.3746 287.539 44.5661 286.958 44.9489C286.376 45.3317 285.924 45.8935 285.601 46.6342C285.282 47.375 285.123 48.2848 285.123 49.3636C285.123 50.4425 285.282 51.3523 285.601 52.093C285.924 52.8338 286.376 53.3956 286.958 53.7784C287.539 54.1612 288.221 54.3526 289.001 54.3526C289.782 54.3526 290.463 54.1612 291.044 53.7784C291.626 53.3956 292.076 52.8338 292.394 52.093C292.717 51.3523 292.879 50.4425 292.879 49.3636ZM307.978 41.7273H311.207V51.6456C311.207 52.7592 310.941 53.7337 310.409 54.5689C309.882 55.4041 309.144 56.0554 308.195 56.5227C307.245 56.9851 306.139 57.2163 304.876 57.2163C303.608 57.2163 302.5 56.9851 301.55 56.5227C300.6 56.0554 299.862 55.4041 299.335 54.5689C298.808 53.7337 298.545 52.7592 298.545 51.6456V41.7273H301.774V51.3697C301.774 51.9513 301.901 52.4684 302.154 52.9208C302.413 53.3732 302.776 53.7287 303.243 53.9872C303.71 54.2457 304.255 54.375 304.876 54.375C305.502 54.375 306.047 54.2457 306.509 53.9872C306.977 53.7287 307.337 53.3732 307.591 52.9208C307.849 52.4684 307.978 51.9513 307.978 51.3697V41.7273ZM316.496 57H313.036L318.309 41.7273H322.47L327.735 57H324.275L320.449 45.2173H320.33L316.496 57ZM316.28 50.9968H324.454V53.5174H316.28V50.9968ZM329.573 57V41.7273H332.802V54.3377H339.35V57H329.573ZM344.717 41.7273V57H341.488V41.7273H344.717ZM346.792 44.3896V41.7273H359.335V44.3896H354.66V57H351.468V44.3896H346.792ZM360.506 41.7273H364.123L367.606 48.3047H367.755L371.237 41.7273H374.854L369.284 51.6009V57H366.077V51.6009L360.506 41.7273Z" fill="#16223F"/>
<circle cx="273.5" cy="309.5" r="157" stroke="url(#paint1_linear_215_1712)" stroke-width="3"/>
<path d="M415.501 218.308L412.193 236.001L394.5 232.694" stroke="#FF5972" stroke-width="3"/>
<path d="M274.298 478.19L260.621 466.488L272.323 452.811" stroke="#FF6964" stroke-width="3"/>
<path d="M129.933 217.038L147.895 215.865L149.068 233.827" stroke="#FF3E88" stroke-width="3"/>
<circle cx="273.5" cy="306.5" r="68.5" fill="#16223F"/>
<path d="M250.45 279.636H253.191L256.861 288.595H257.006L260.676 279.636H263.417V292H261.268V283.506H261.153L257.737 291.964H256.131L252.714 283.488H252.599V292H250.45V279.636ZM267.444 292H265.053L269.406 279.636H272.171L276.529 292H274.139L270.837 282.172H270.74L267.444 292ZM267.522 287.152H274.042V288.951H267.522V287.152ZM278.158 292V279.636H280.398V285.317H280.549L285.372 279.636H288.107L283.326 285.184L288.149 292H285.457L281.768 286.7L280.398 288.317V292H278.158ZM289.663 292V279.636H297.704V281.514H291.903V284.87H297.287V286.748H291.903V290.123H297.752V292H289.663ZM269.678 312V302.727H271.863V312H269.678ZM270.776 301.411C270.43 301.411 270.132 301.297 269.883 301.067C269.633 300.834 269.509 300.554 269.509 300.228C269.509 299.898 269.633 299.618 269.883 299.389C270.132 299.155 270.43 299.039 270.776 299.039C271.126 299.039 271.424 299.155 271.67 299.389C271.919 299.618 272.044 299.898 272.044 300.228C272.044 300.554 271.919 300.834 271.67 301.067C271.424 301.297 271.126 301.411 270.776 301.411ZM278.741 302.727V304.418H273.41V302.727H278.741ZM274.726 300.506H276.911V309.211C276.911 309.505 276.956 309.73 277.044 309.887C277.137 310.04 277.257 310.145 277.406 310.201C277.555 310.257 277.72 310.286 277.901 310.286C278.038 310.286 278.163 310.275 278.276 310.255C278.392 310.235 278.481 310.217 278.541 310.201L278.91 311.909C278.793 311.95 278.626 311.994 278.408 312.042C278.195 312.091 277.934 312.119 277.624 312.127C277.076 312.143 276.583 312.06 276.145 311.879C275.706 311.694 275.358 311.408 275.1 311.022C274.847 310.636 274.722 310.153 274.726 309.573V300.506ZM260.224 323.035C260.167 322.508 259.93 322.097 259.511 321.804C259.097 321.51 258.558 321.363 257.893 321.363C257.427 321.363 257.026 321.433 256.692 321.574C256.358 321.715 256.103 321.906 255.925 322.148C255.748 322.389 255.658 322.665 255.654 322.975C255.654 323.232 255.712 323.456 255.829 323.645C255.95 323.834 256.113 323.995 256.318 324.128C256.523 324.257 256.75 324.365 257 324.454C257.25 324.542 257.501 324.617 257.755 324.677L258.914 324.967C259.381 325.076 259.829 325.223 260.26 325.408C260.695 325.593 261.083 325.826 261.425 326.108C261.771 326.39 262.045 326.73 262.246 327.128C262.447 327.527 262.548 327.993 262.548 328.529C262.548 329.253 262.363 329.891 261.993 330.442C261.622 330.99 261.087 331.418 260.387 331.728C259.69 332.034 258.847 332.187 257.857 332.187C256.895 332.187 256.06 332.038 255.352 331.74C254.648 331.443 254.096 331.008 253.698 330.436C253.303 329.865 253.09 329.169 253.058 328.348H255.261C255.294 328.778 255.426 329.136 255.66 329.422C255.893 329.708 256.197 329.921 256.571 330.062C256.95 330.203 257.372 330.273 257.839 330.273C258.326 330.273 258.753 330.201 259.119 330.056C259.489 329.907 259.779 329.702 259.988 329.44C260.198 329.175 260.304 328.865 260.308 328.511C260.304 328.189 260.21 327.923 260.025 327.714C259.839 327.5 259.58 327.323 259.246 327.183C258.916 327.038 258.529 326.909 258.087 326.796L256.68 326.434C255.662 326.172 254.857 325.776 254.265 325.245C253.678 324.709 253.384 323.999 253.384 323.114C253.384 322.385 253.581 321.747 253.975 321.2C254.374 320.653 254.915 320.228 255.599 319.926C256.284 319.62 257.058 319.467 257.924 319.467C258.801 319.467 259.57 319.62 260.23 319.926C260.894 320.228 261.415 320.649 261.793 321.188C262.172 321.723 262.367 322.339 262.379 323.035H260.224ZM265.933 332H263.543L267.895 319.636H270.66L275.019 332H272.628L269.326 322.172H269.229L265.933 332ZM266.012 327.152H272.532V328.951H266.012V327.152ZM276.647 332V319.636H284.568V321.514H278.887V324.87H284.024V326.748H278.887V332H276.647ZM286.608 332V319.636H294.649V321.514H288.848V324.87H294.233V326.748H288.848V330.123H294.698V332H286.608Z" fill="white"/>
<path d="M274 193L271.113 198L276.887 198L274 193ZM273.5 197.5L273.5 227.224L274.5 227.224L274.5 197.5L273.5 197.5Z" fill="white"/>
<path d="M274 238L276.887 233L271.113 233L274 238ZM274.5 233.5L274.5 215.5L273.5 215.5L273.5 233.5L274.5 233.5Z" fill="white"/>
<path d="M336 334L338.802 339.048L341.773 334.097L336 334ZM339.601 336.744L366.164 352.682L366.679 351.824L340.116 335.886L339.601 336.744Z" fill="white"/>
<path d="M376 358L373.198 352.952L370.227 357.903L376 358ZM372.399 355.256L356.257 345.571L355.743 346.429L371.884 356.114L372.399 355.256Z" fill="white"/>
<path d="M211 334L208.198 339.048L205.227 334.097L211 334ZM207.399 336.744L180.836 352.682L180.321 351.824L206.884 335.886L207.399 336.744Z" fill="white"/>
<path d="M171 358L173.802 352.952L176.773 357.903L171 358ZM174.601 355.256L190.743 345.571L191.257 346.429L175.116 356.114L174.601 355.256Z" fill="white"/>
<circle cx="274" cy="140" r="53" fill="#16223F"/>
<path d="M253.292 133.818C253.292 135.15 253.043 136.291 252.544 137.241C252.049 138.187 251.373 138.911 250.515 139.414C249.662 139.917 248.694 140.169 247.612 140.169C246.529 140.169 245.559 139.917 244.702 139.414C243.849 138.907 243.173 138.181 242.673 137.235C242.178 136.285 241.931 135.146 241.931 133.818C241.931 132.486 242.178 131.347 242.673 130.401C243.173 129.451 243.849 128.725 244.702 128.222C245.559 127.719 246.529 127.467 247.612 127.467C248.694 127.467 249.662 127.719 250.515 128.222C251.373 128.725 252.049 129.451 252.544 130.401C253.043 131.347 253.292 132.486 253.292 133.818ZM251.041 133.818C251.041 132.88 250.894 132.09 250.6 131.446C250.31 130.798 249.908 130.309 249.393 129.979C248.877 129.645 248.284 129.478 247.612 129.478C246.94 129.478 246.346 129.645 245.831 129.979C245.316 130.309 244.911 130.798 244.617 131.446C244.328 132.09 244.183 132.88 244.183 133.818C244.183 134.756 244.328 135.549 244.617 136.197C244.911 136.841 245.316 137.33 245.831 137.664C246.346 137.994 246.94 138.159 247.612 138.159C248.284 138.159 248.877 137.994 249.393 137.664C249.908 137.33 250.31 136.841 250.6 136.197C250.894 135.549 251.041 134.756 251.041 133.818ZM257.696 140L254.207 127.636H256.616L258.843 136.722H258.958L261.337 127.636H263.528L265.913 136.728H266.021L268.249 127.636H270.658L267.168 140H264.959L262.484 131.325H262.387L259.906 140H257.696ZM282.371 127.636V140H280.379L274.553 131.578H274.45V140H272.211V127.636H274.215L280.035 136.064H280.143V127.636H282.371ZM284.811 140V127.636H292.852V129.514H287.051V132.87H292.436V134.748H287.051V138.123H292.901V140H284.811ZM295.137 140V127.636H299.774C300.724 127.636 301.52 127.801 302.164 128.131C302.812 128.461 303.301 128.924 303.631 129.52C303.965 130.112 304.132 130.802 304.132 131.591C304.132 132.383 303.963 133.072 303.625 133.655C303.291 134.235 302.798 134.683 302.146 135.001C301.494 135.315 300.693 135.472 299.744 135.472H296.441V133.613H299.442C299.997 133.613 300.452 133.536 300.806 133.384C301.16 133.227 301.422 132.999 301.591 132.701C301.764 132.4 301.85 132.029 301.85 131.591C301.85 131.152 301.764 130.778 301.591 130.468C301.418 130.154 301.154 129.916 300.8 129.755C300.446 129.59 299.989 129.508 299.43 129.508H297.377V140H295.137ZM301.525 134.398L304.585 140H302.086L299.08 134.398H301.525ZM261.291 151.035C261.234 150.508 260.997 150.097 260.578 149.804C260.164 149.51 259.624 149.363 258.96 149.363C258.494 149.363 258.093 149.433 257.759 149.574C257.425 149.715 257.169 149.906 256.992 150.148C256.815 150.389 256.725 150.665 256.721 150.975C256.721 151.232 256.779 151.456 256.896 151.645C257.016 151.834 257.179 151.995 257.385 152.128C257.59 152.257 257.817 152.365 258.067 152.454C258.316 152.542 258.568 152.617 258.822 152.677L259.981 152.967C260.447 153.076 260.896 153.223 261.327 153.408C261.761 153.593 262.15 153.826 262.492 154.108C262.838 154.39 263.112 154.73 263.313 155.128C263.514 155.527 263.615 155.993 263.615 156.529C263.615 157.253 263.43 157.891 263.059 158.442C262.689 158.99 262.154 159.418 261.454 159.728C260.757 160.034 259.914 160.187 258.924 160.187C257.962 160.187 257.127 160.038 256.419 159.74C255.715 159.443 255.163 159.008 254.765 158.436C254.37 157.865 254.157 157.169 254.125 156.348H256.328C256.36 156.778 256.493 157.136 256.727 157.422C256.96 157.708 257.264 157.921 257.638 158.062C258.017 158.203 258.439 158.273 258.906 158.273C259.393 158.273 259.82 158.201 260.186 158.056C260.556 157.907 260.846 157.702 261.055 157.44C261.264 157.175 261.371 156.865 261.375 156.511C261.371 156.189 261.277 155.923 261.091 155.714C260.906 155.5 260.647 155.323 260.313 155.183C259.983 155.038 259.596 154.909 259.154 154.796L257.747 154.434C256.729 154.172 255.924 153.776 255.332 153.245C254.745 152.709 254.451 151.999 254.451 151.114C254.451 150.385 254.648 149.747 255.042 149.2C255.441 148.653 255.982 148.228 256.666 147.926C257.351 147.62 258.125 147.467 258.991 147.467C259.868 147.467 260.637 147.62 261.297 147.926C261.961 148.228 262.482 148.649 262.86 149.188C263.239 149.723 263.434 150.339 263.446 151.035H261.291ZM265.612 160V147.636H267.851V152.87H273.58V147.636H275.826V160H273.58V154.748H267.851V160H265.612ZM280.502 147.636V160H278.262V147.636H280.502ZM282.927 160V147.636H287.563C288.513 147.636 289.31 147.813 289.954 148.168C290.602 148.522 291.091 149.009 291.421 149.629C291.755 150.244 291.922 150.945 291.922 151.729C291.922 152.522 291.755 153.227 291.421 153.842C291.087 154.458 290.594 154.943 289.942 155.297C289.29 155.647 288.487 155.822 287.533 155.822H284.46V153.981H287.231C287.787 153.981 288.241 153.885 288.596 153.691C288.95 153.498 289.211 153.233 289.38 152.895C289.554 152.556 289.64 152.168 289.64 151.729C289.64 151.291 289.554 150.904 289.38 150.57C289.211 150.236 288.948 149.977 288.59 149.792C288.235 149.602 287.779 149.508 287.219 149.508H285.167V160H282.927Z" fill="white"/>
<circle cx="120" cy="375" r="53" fill="#16223F"/>
<path d="M98.6706 371V358.636H100.91V364.317H101.061L105.885 358.636H108.619L103.838 364.184L108.662 371H105.969L102.281 365.7L100.91 367.317V371H98.6706ZM110.176 371V358.636H118.217V360.514H112.415V363.87H117.8V365.748H112.415V369.123H118.265V371H110.176ZM120.502 371V358.636H128.543V360.514H122.741V363.87H128.126V365.748H122.741V369.123H128.591V371H120.502ZM130.828 371V358.636H135.464C136.414 358.636 137.211 358.813 137.855 359.168C138.503 359.522 138.992 360.009 139.322 360.629C139.656 361.244 139.823 361.945 139.823 362.729C139.823 363.522 139.656 364.227 139.322 364.842C138.988 365.458 138.495 365.943 137.843 366.297C137.191 366.647 136.388 366.822 135.434 366.822H132.361V364.981H135.132C135.688 364.981 136.142 364.885 136.497 364.691C136.851 364.498 137.112 364.233 137.281 363.895C137.454 363.556 137.541 363.168 137.541 362.729C137.541 362.291 137.454 361.904 137.281 361.57C137.112 361.236 136.849 360.977 136.491 360.792C136.136 360.602 135.68 360.508 135.12 360.508H133.068V371H130.828ZM77.2131 391V378.636H79.4528V389.123H84.8981V391H77.2131ZM86.842 391V378.636H94.8832V380.514H89.0817V383.87H94.4667V385.748H89.0817V389.123H94.9315V391H86.842ZM98.7559 391H96.3653L100.718 378.636H103.483L107.841 391H105.451L102.149 381.172H102.052L98.7559 391ZM98.8344 386.152H105.354V387.951H98.8344V386.152ZM109.47 391V378.636H114.106C115.056 378.636 115.853 378.801 116.497 379.131C117.145 379.461 117.634 379.924 117.964 380.52C118.298 381.112 118.465 381.802 118.465 382.591C118.465 383.383 118.296 384.072 117.958 384.655C117.624 385.235 117.131 385.683 116.479 386.001C115.827 386.315 115.026 386.472 114.076 386.472H110.774V384.613H113.774C114.33 384.613 114.784 384.536 115.139 384.384C115.493 384.227 115.754 383.999 115.923 383.701C116.096 383.4 116.183 383.029 116.183 382.591C116.183 382.152 116.096 381.778 115.923 381.468C115.75 381.154 115.487 380.916 115.133 380.755C114.778 380.59 114.322 380.508 113.762 380.508H111.71V391H109.47ZM115.857 385.398L118.918 391H116.418L113.412 385.398H115.857ZM130.687 378.636V391H128.695L122.869 382.578H122.766V391H120.527V378.636H122.531L128.35 387.064H128.459V378.636H130.687ZM135.367 378.636V391H133.127V378.636H135.367ZM147.952 378.636V391H145.96L140.135 382.578H140.032V391H137.792V378.636H139.796L145.616 387.064H145.725V378.636H147.952ZM158.675 382.585C158.575 382.259 158.436 381.967 158.259 381.709C158.086 381.448 157.877 381.224 157.631 381.039C157.39 380.854 157.112 380.715 156.798 380.623C156.484 380.526 156.142 380.478 155.772 380.478C155.108 380.478 154.516 380.645 153.997 380.979C153.478 381.313 153.069 381.804 152.771 382.452C152.478 383.096 152.331 383.88 152.331 384.806C152.331 385.74 152.478 386.531 152.771 387.179C153.065 387.827 153.474 388.32 153.997 388.658C154.52 388.992 155.128 389.159 155.82 389.159C156.448 389.159 156.991 389.038 157.45 388.797C157.913 388.555 158.269 388.213 158.519 387.77C158.768 387.324 158.893 386.8 158.893 386.201L159.4 386.279H156.043V384.528H161.06V386.013C161.06 387.072 160.835 387.988 160.384 388.76C159.933 389.533 159.313 390.129 158.525 390.547C157.736 390.962 156.83 391.169 155.808 391.169C154.669 391.169 153.669 390.913 152.808 390.402C151.95 389.887 151.28 389.157 150.797 388.211C150.318 387.261 150.079 386.134 150.079 384.83C150.079 383.832 150.22 382.941 150.501 382.156C150.787 381.371 151.186 380.705 151.697 380.158C152.208 379.606 152.808 379.188 153.496 378.902C154.184 378.612 154.933 378.467 155.742 378.467C156.426 378.467 157.064 378.568 157.655 378.769C158.247 378.966 158.772 379.248 159.231 379.614C159.694 379.981 160.074 380.415 160.372 380.918C160.67 381.421 160.865 381.977 160.957 382.585H158.675Z" fill="white"/>
<circle cx="427" cy="375" r="53" fill="#16223F"/>
<path d="M415.439 354.585C415.339 354.259 415.2 353.967 415.023 353.709C414.85 353.448 414.64 353.224 414.395 353.039C414.153 352.854 413.876 352.715 413.562 352.623C413.248 352.526 412.906 352.478 412.535 352.478C411.871 352.478 411.28 352.645 410.761 352.979C410.241 353.313 409.833 353.804 409.535 354.452C409.241 355.096 409.094 355.88 409.094 356.806C409.094 357.74 409.241 358.531 409.535 359.179C409.829 359.827 410.237 360.32 410.761 360.658C411.284 360.992 411.891 361.159 412.584 361.159C413.212 361.159 413.755 361.038 414.214 360.797C414.676 360.555 415.033 360.213 415.282 359.77C415.532 359.324 415.656 358.8 415.656 358.201L416.164 358.279H412.807V356.528H417.824V358.013C417.824 359.072 417.598 359.988 417.148 360.76C416.697 361.533 416.077 362.129 415.288 362.547C414.499 362.962 413.594 363.169 412.572 363.169C411.433 363.169 410.433 362.913 409.571 362.402C408.714 361.887 408.044 361.157 407.561 360.211C407.082 359.261 406.843 358.134 406.843 356.83C406.843 355.832 406.983 354.941 407.265 354.156C407.551 353.371 407.949 352.705 408.46 352.158C408.972 351.606 409.571 351.188 410.259 350.902C410.948 350.612 411.696 350.467 412.505 350.467C413.189 350.467 413.827 350.568 414.419 350.769C415.011 350.966 415.536 351.248 415.995 351.614C416.457 351.981 416.838 352.415 417.136 352.918C417.433 353.421 417.629 353.977 417.721 354.585H415.439ZM422.229 350.636V363H419.989V350.636H422.229ZM426.309 350.636L429.526 360.368H429.653L432.865 350.636H435.328L430.969 363H428.204L423.852 350.636H426.309ZM436.956 363V350.636H444.997V352.514H439.196V355.87H444.581V357.748H439.196V361.123H445.046V363H436.956ZM427.29 383.181C426.444 383.181 425.718 383.028 425.11 382.722C424.503 382.416 424.034 382.004 423.704 381.485C423.378 380.962 423.215 380.372 423.215 379.716C423.215 379.221 423.315 378.782 423.517 378.4C423.722 378.018 424.004 377.663 424.362 377.337C424.724 377.011 425.143 376.687 425.617 376.365L427.809 374.874C428.131 374.665 428.374 374.444 428.539 374.21C428.708 373.977 428.793 373.703 428.793 373.389C428.793 373.124 428.68 372.872 428.455 372.635C428.233 372.397 427.928 372.278 427.537 372.278C427.276 372.278 427.044 372.341 426.843 372.466C426.646 372.586 426.491 372.745 426.378 372.942C426.269 373.14 426.215 373.349 426.215 373.57C426.215 373.84 426.29 374.114 426.438 374.391C426.591 374.669 426.789 374.957 427.03 375.255C427.276 375.552 427.537 375.868 427.815 376.202L433.616 383H431.25L426.432 377.482C426.074 377.064 425.728 376.651 425.394 376.245C425.064 375.838 424.792 375.416 424.579 374.977C424.37 374.534 424.265 374.055 424.265 373.54C424.265 372.957 424.4 372.435 424.67 371.977C424.939 371.514 425.316 371.15 425.799 370.884C426.285 370.618 426.855 370.485 427.507 370.485C428.159 370.485 428.718 370.614 429.185 370.872C429.652 371.129 430.012 371.471 430.266 371.898C430.519 372.325 430.646 372.79 430.646 373.293C430.646 373.876 430.501 374.399 430.212 374.862C429.922 375.321 429.519 375.738 429.004 376.112L426.505 377.941C426.094 378.239 425.801 378.541 425.623 378.847C425.446 379.148 425.358 379.406 425.358 379.619C425.358 379.945 425.44 380.241 425.605 380.507C425.77 380.772 426.002 380.986 426.3 381.147C426.601 381.304 426.954 381.382 427.356 381.382C427.799 381.382 428.235 381.283 428.666 381.086C429.097 380.885 429.489 380.599 429.843 380.229C430.197 379.859 430.479 379.416 430.688 378.901C430.898 378.382 431.002 377.806 431.002 377.174H432.88C432.88 377.955 432.793 378.635 432.62 379.215C432.447 379.79 432.224 380.277 431.95 380.676C431.676 381.07 431.387 381.386 431.081 381.624C430.984 381.692 430.892 381.76 430.803 381.829C430.715 381.897 430.622 381.966 430.525 382.034C430.091 382.429 429.582 382.718 428.998 382.903C428.419 383.089 427.849 383.181 427.29 383.181ZM415.439 394.585C415.339 394.259 415.2 393.967 415.023 393.709C414.85 393.448 414.64 393.224 414.395 393.039C414.153 392.854 413.876 392.715 413.562 392.623C413.248 392.526 412.906 392.478 412.535 392.478C411.871 392.478 411.28 392.645 410.761 392.979C410.241 393.313 409.833 393.804 409.535 394.452C409.241 395.096 409.094 395.88 409.094 396.806C409.094 397.74 409.241 398.531 409.535 399.179C409.829 399.827 410.237 400.32 410.761 400.658C411.284 400.992 411.891 401.159 412.584 401.159C413.212 401.159 413.755 401.038 414.214 400.797C414.676 400.555 415.033 400.213 415.282 399.77C415.532 399.324 415.656 398.8 415.656 398.201L416.164 398.279H412.807V396.528H417.824V398.013C417.824 399.072 417.598 399.988 417.148 400.76C416.697 401.533 416.077 402.129 415.288 402.547C414.499 402.962 413.594 403.169 412.572 403.169C411.433 403.169 410.433 402.913 409.571 402.402C408.714 401.887 408.044 401.157 407.561 400.211C407.082 399.261 406.843 398.134 406.843 396.83C406.843 395.832 406.983 394.941 407.265 394.156C407.551 393.371 407.949 392.705 408.46 392.158C408.972 391.606 409.571 391.188 410.259 390.902C410.948 390.612 411.696 390.467 412.505 390.467C413.189 390.467 413.827 390.568 414.419 390.769C415.011 390.966 415.536 391.248 415.995 391.614C416.457 391.981 416.838 392.415 417.136 392.918C417.433 393.421 417.629 393.977 417.721 394.585H415.439ZM422.229 390.636V403H419.989V390.636H422.229ZM426.309 390.636L429.526 400.368H429.653L432.865 390.636H435.328L430.969 403H428.204L423.852 390.636H426.309ZM436.956 403V390.636H444.997V392.514H439.196V395.87H444.581V397.748H439.196V401.123H445.046V403H436.956Z" fill="white"/>
<defs>
<linearGradient id="paint0_linear_215_1712" x1="35" y1="16.5" x2="418.5" y2="467" gradientUnits="userSpaceOnUse">
<stop stop-color="#50C7D3"/>
<stop offset="0.744792" stop-color="#B7C4E5"/>
</linearGradient>
<linearGradient id="paint1_linear_215_1712" x1="190.472" y1="166.497" x2="386.207" y2="438.875" gradientUnits="userSpaceOnUse">
<stop stop-color="#FF3C89"/>
<stop offset="1" stop-color="#FF6C61"/>
</linearGradient>
</defs>
</svg>
