<svg width="1515" height="968" viewBox="0 0 1515 968" fill="none" xmlns="http://www.w3.org/2000/svg">
<path d="M3.73456 349.503V351.87C7.3152 352.129 15.4879 351.631 31.7346 349.503C73.7346 344.003 137.235 323.503 190.735 286.503C244.235 249.503 305.735 139.503 336.235 103.503C366.735 67.5032 402.735 15.5031 496.235 2.00313C589.735 -11.4969 891.735 47.0031 963.735 65.0031C1035.73 83.0031 1189.73 119.503 1329.73 96.0031C1441.73 77.2031 1499.73 38.1698 1514.73 21.0031V783.003C1493.23 783.003 1465.73 783.003 1434.73 789.003C1370.01 801.53 1285.73 828.003 1206.23 897.003C1126.73 966.003 1014.23 979.503 806.735 959.503C599.235 939.503 396.235 908.503 227.235 915.503C92.0346 921.103 21.9012 947.17 3.73456 959.503V351.87C-0.0899839 351.592 1.32437 350.45 3.73456 349.503Z" fill="#596481"/>
<mask id="mask0_334_1082" style="mask-type:alpha" maskUnits="userSpaceOnUse" x="0" y="0" width="1514" height="968">
<path d="M2.36737 349.503V351.87C5.94801 352.129 14.1207 351.631 30.3674 349.503C72.3674 344.003 135.867 323.503 189.367 286.503C242.867 249.503 304.367 139.503 334.867 103.503C365.367 67.5032 401.367 15.5031 494.867 2.00313C588.367 -11.4969 890.367 47.0031 962.367 65.0031C1034.37 83.0031 1188.37 119.503 1328.37 96.0031C1440.37 77.2031 1498.37 38.1698 1513.37 21.0031V783.003C1491.87 783.003 1464.37 783.003 1433.37 789.003C1368.64 801.53 1284.37 828.003 1204.87 897.003C1125.37 966.003 1012.87 979.503 805.367 959.503C597.867 939.503 394.867 908.503 225.867 915.503C90.6674 921.103 20.534 947.17 2.36737 959.503V351.87C-1.45717 351.592 -0.0428146 350.45 2.36737 349.503Z" fill="#D9D9D9"/>
</mask>
<g mask="url(#mask0_334_1082)">
<path d="M-9.58827 154.826C141.512 112.876 204.479 232.427 267.316 271.055C354.492 324.643 535.499 418.181 468.924 537.661C365.098 723.996 150.084 729.952 6.76906 625.096C-248.585 438.268 -219.955 213.23 -9.58827 154.826Z" fill="#FF3989" fill-opacity="0.3"/>
</g>
</svg>
