<svg width="390" height="889" viewBox="0 0 390 889" fill="none" xmlns="http://www.w3.org/2000/svg">
<path d="M0 97.059V885.06C2.33035 882.895 7.79001 878.165 10.9859 876.566C14.9808 874.567 28.9629 864.573 69.411 863.574C109.859 862.575 172.778 880.064 220.218 887.059C267.657 894.055 287.132 880.563 297.618 871.569C308.105 862.575 325.583 830.595 344.059 818.103C358.84 808.109 380.845 804.278 390 803.612V5.61693C387.836 7.61566 381.311 12.9123 372.522 18.109C361.536 24.6049 322.087 31.6005 289.629 26.6036C257.17 21.6068 164.789 -1.87837 141.818 0.120369C118.848 2.1191 110.858 2.61879 96.8758 15.6106C82.8937 28.6023 64.9168 67.5777 43.9437 82.5682C27.1652 94.5606 7.65685 97.2256 0 97.059Z" fill="#596480"/>
<mask id="mask0_334_1086" style="mask-type:alpha" maskUnits="userSpaceOnUse" x="0" y="0" width="390" height="889">
<path d="M0 97.059V885.06C2.33035 882.895 7.79001 878.165 10.9859 876.566C14.9808 874.567 28.9629 864.573 69.411 863.574C109.859 862.575 172.778 880.064 220.218 887.059C267.657 894.055 287.132 880.563 297.618 871.569C308.105 862.575 325.583 830.595 344.059 818.103C358.84 808.109 380.845 804.278 390 803.612V5.61693C387.836 7.61566 381.311 12.9123 372.522 18.109C361.536 24.6049 322.087 31.6005 289.629 26.6036C257.17 21.6068 164.789 -1.87837 141.818 0.120369C118.848 2.1191 110.858 2.61879 96.8758 15.6106C82.8937 28.6023 64.9168 67.5777 43.9437 82.5682C27.1652 94.5606 7.65685 97.2256 0 97.059Z" fill="#596480"/>
</mask>
<g mask="url(#mask0_334_1086)">
<path d="M-41.8356 488.871C47.7773 463.991 85.1212 534.894 122.388 557.803C174.089 589.584 281.439 645.059 241.956 715.919C180.379 826.428 52.8615 829.961 -32.1346 767.774C-183.577 656.972 -166.598 523.508 -41.8356 488.871Z" fill="#FF3989" fill-opacity="0.3"/>
</g>
</svg>
